<svg width="24" height="24" viewBox="0 0 24 24" fill="none" xmlns="http://www.w3.org/2000/svg">
<g id="Arrow - Up">
<g id="Iconly/Light-Outline/Arrow---Up">
<g id="Arrow---Up">
<path id="Combined-Shape" d="M11.7254 20C11.3457 20 11.0319 19.7178 10.9822 19.3518L10.9754 19.25L10.976 6.066L6.23247 10.829C5.94021 11.1225 5.46534 11.1235 5.17181 10.8313C4.90497 10.5656 4.87987 10.149 5.09709 9.85489L5.16953 9.77061L11.1935 3.72061C11.2321 3.68192 11.2737 3.64832 11.3178 3.61979C11.331 3.61174 11.3446 3.60354 11.3584 3.59576C11.3703 3.58861 11.3826 3.58215 11.395 3.57606C11.4131 3.56759 11.4319 3.55932 11.4509 3.55181C11.4657 3.5457 11.48 3.54061 11.4944 3.53596C11.5123 3.53043 11.5314 3.52506 11.5507 3.52045C11.5642 3.51701 11.5773 3.51429 11.5903 3.51192C11.6097 3.50859 11.6299 3.50575 11.6502 3.50372C11.6657 3.50197 11.6811 3.50092 11.6965 3.50034C11.7058 3.50019 11.7156 3.5 11.7254 3.5L11.7545 3.50038C11.7692 3.50095 11.7839 3.50196 11.7986 3.50339L11.7254 3.5C11.7727 3.5 11.819 3.50438 11.8639 3.51277C11.8747 3.51471 11.8857 3.51703 11.8966 3.51959C11.9192 3.52492 11.9409 3.53108 11.9623 3.53817C11.9728 3.54165 11.9842 3.5457 11.9954 3.55003C12.018 3.5588 12.0395 3.56833 12.0604 3.5788C12.0703 3.58367 12.0806 3.58912 12.0908 3.59484C12.1075 3.60421 12.1233 3.61386 12.1387 3.62407C12.1496 3.63128 12.161 3.63925 12.1722 3.64758L12.1808 3.65407C12.2072 3.67428 12.2323 3.6962 12.2557 3.71967L12.2564 3.72057L18.2814 9.77057C18.5737 10.0641 18.5727 10.5389 18.2792 10.8312C18.0124 11.0969 17.5957 11.1203 17.3025 10.9018L17.2186 10.829L12.476 6.068L12.4754 19.25C12.4754 19.6642 12.1396 20 11.7254 20Z" fill="white"/>
</g>
</g>
</g>
</svg>
