<svg width="48" height="48" viewBox="0 0 48 48" fill="none" xmlns="http://www.w3.org/2000/svg">
<rect width="48" height="48" rx="16" fill="#767680" fill-opacity="0.24"/>
<rect x="0.165" y="0.165" width="47.67" height="47.67" rx="15.835" stroke="#545458" stroke-opacity="0.64" stroke-width="0.33"/>
<path d="M24.02 14C29.7 14 34 18.657 34 23.985C34 30.1642 28.96 34 24 34C22.36 34 20.54 33.5593 19.08 32.698C18.57 32.3876 18.14 32.1572 17.59 32.3375L15.57 32.9384C15.06 33.0986 14.6 32.698 14.75 32.1572L15.42 29.9139C15.53 29.6034 15.51 29.2729 15.35 29.0125C14.49 27.4301 14 25.6975 14 24.015C14 18.7471 18.21 14 24.02 14ZM28.59 22.7431C27.88 22.7431 27.31 23.314 27.31 24.025C27.31 24.7261 27.88 25.307 28.59 25.307C29.3 25.307 29.87 24.7261 29.87 24.025C29.87 23.314 29.3 22.7431 28.59 22.7431ZM23.98 22.7431C23.28 22.7331 22.7 23.314 22.7 24.015C22.7 24.7261 23.27 25.2969 23.98 25.307C24.69 25.307 25.26 24.7261 25.26 24.025C25.26 23.314 24.69 22.7431 23.98 22.7431ZM19.37 22.7431C18.66 22.7431 18.09 23.314 18.09 24.025C18.09 24.7261 18.67 25.307 19.37 25.307C20.08 25.2969 20.65 24.7261 20.65 24.025C20.65 23.314 20.08 22.7431 19.37 22.7431Z" fill="white"/>
</svg>
