<svg width="24" height="24" viewBox="0 0 24 24" fill="none" xmlns="http://www.w3.org/2000/svg">
<path fill-rule="evenodd" clip-rule="evenodd" d="M12 1.75C17.652 1.75 22.25 6.348 22.25 12C22.25 17.652 17.652 22.25 12 22.25C6.348 22.25 1.75 17.652 1.75 12C1.75 6.348 6.348 1.75 12 1.75ZM12 3.25C7.175 3.25 3.25 7.175 3.25 12C3.25 16.825 7.175 20.75 12 20.75C16.825 20.75 20.75 16.825 20.75 12C20.75 7.175 16.825 3.25 12 3.25Z" fill="#242424"/>
<path d="M7.82333 9.41337C7.88855 8.89157 8.33212 8.5 8.85798 8.5H9.64202C10.1679 8.5 10.6114 8.89157 10.6767 9.41337V9.41337C10.8914 11.1311 10.8914 12.8689 10.6767 14.5866V14.5866C10.6114 15.1084 10.1679 15.5 9.64202 15.5H8.85798C8.33212 15.5 7.88855 15.1084 7.82333 14.5866V14.5866C7.60861 12.8689 7.60861 11.1311 7.82333 9.41337V9.41337Z" stroke="#242424" stroke-width="1.5"/>
<path d="M13.3233 9.41337C13.3886 8.89157 13.8321 8.5 14.358 8.5H15.142C15.6679 8.5 16.1114 8.89157 16.1767 9.41337V9.41337C16.3914 11.1311 16.3914 12.8689 16.1767 14.5866V14.5866C16.1114 15.1084 15.6679 15.5 15.142 15.5H14.358C13.8321 15.5 13.3886 15.1084 13.3233 14.5866V14.5866C13.1086 12.8689 13.1086 11.1311 13.3233 9.41337V9.41337Z" stroke="#242424" stroke-width="1.5"/>
</svg>
