<svg width="48" height="48" viewBox="0 0 48 48" fill="none" xmlns="http://www.w3.org/2000/svg">
<path d="M39.0626 19.6524C40.132 19.6524 41 20.5076 41 21.5656C41 30.1732 34.4011 37.2808 25.9384 38.2355V42.0868C25.9384 43.1429 25.0704 44 24.001 44C22.9296 44 22.0635 43.1429 22.0635 42.0868V38.2355C13.5989 37.2808 7 30.1732 7 21.5656C7 20.5076 7.86797 19.6524 8.93743 19.6524C10.0069 19.6524 10.8749 20.5076 10.8749 21.5656C10.8749 28.7115 16.7627 34.5258 24.001 34.5258C31.2373 34.5258 37.1251 28.7115 37.1251 21.5656C37.1251 20.5076 37.9931 19.6524 39.0626 19.6524ZM24.3495 4C28.3387 4 31.7001 6.64789 32.7289 10.262C32.8703 10.7575 32.4964 11.2492 31.9772 11.2492H29.7123C29.0284 11.2492 28.4724 11.7964 28.4724 12.4717C28.4724 13.1509 29.0284 13.6981 29.7123 13.6981H31.8009C32.4925 13.6981 33.0544 14.251 33.0544 14.934C33.0544 15.6171 32.4925 16.17 31.8009 16.17H29.7123C29.0284 16.17 28.4724 16.7191 28.4724 17.3963C28.4724 18.0717 29.0284 18.6208 29.7123 18.6208H31.8009C32.4925 18.6208 33.0544 19.1737 33.0544 19.8587C33.0544 20.5398 32.4925 21.0927 31.8009 21.0927H29.7123C29.0284 21.0927 28.4724 21.6418 28.4724 22.319C28.4724 22.9944 29.0284 23.5416 29.7123 23.5416H31.8668C32.3976 23.5416 32.7773 24.0543 32.6107 24.5518C31.4618 27.9688 28.1992 30.433 24.3495 30.433H23.6501C18.8433 30.433 14.9472 26.5855 14.9472 21.8407V12.5942C14.9472 7.84748 18.8433 4 23.6501 4H24.3495Z" fill="#6167FF"/>
</svg>
