<svg width="25" height="24" viewBox="0 0 25 24" fill="none" xmlns="http://www.w3.org/2000/svg">
<path d="M12.2825 14.5396C15.7137 14.5396 18.6435 15.0836 18.6435 17.2604C18.6435 19.4362 15.7325 20 12.2825 20C8.85134 20 5.92158 19.456 5.92158 17.2802C5.92158 15.1034 8.83254 14.5396 12.2825 14.5396ZM17.7686 13.2289C19.0803 13.2046 20.4906 13.3847 21.0117 13.5126C22.1157 13.7296 22.8419 14.1727 23.1428 14.8166C23.3971 15.3453 23.3971 15.9586 23.1428 16.4864C22.6825 17.4851 21.1989 17.8058 20.6222 17.8886C20.5031 17.9066 20.4073 17.8031 20.4199 17.6833C20.7144 14.9157 18.3712 13.6035 17.765 13.3018C17.739 13.2883 17.7336 13.2676 17.7363 13.255C17.7381 13.246 17.7489 13.2316 17.7686 13.2289ZM6.8991 13.2292C6.91879 13.2319 6.92864 13.2464 6.93043 13.2545C6.93312 13.268 6.92775 13.2878 6.90268 13.3022C6.29559 13.6039 3.95233 14.9161 4.24691 17.6827C4.25945 17.8034 4.16454 17.9061 4.04545 17.889C3.46881 17.8061 1.98513 17.4855 1.52489 16.4867C1.2697 15.9581 1.2697 15.3457 1.52489 14.817C1.82574 14.1731 2.55102 13.73 3.65505 13.512C4.17707 13.385 5.58644 13.2049 6.8991 13.2292ZM12.2825 4C14.6186 4 16.4918 5.88227 16.4918 8.23285C16.4918 10.5825 14.6186 12.4666 12.2825 12.4666C9.94642 12.4666 8.07324 10.5825 8.07324 8.23285C8.07324 5.88227 9.94642 4 12.2825 4ZM17.9969 4.7059C20.2533 4.7059 22.0253 6.84123 21.4218 9.21974C21.0144 10.821 19.5397 11.8846 17.8966 11.8414C17.7319 11.8369 17.5698 11.8216 17.4131 11.7946C17.2994 11.7748 17.2421 11.646 17.3065 11.5505C17.9333 10.6229 18.2906 9.50703 18.2906 8.30922C18.2906 7.05918 17.9002 5.8938 17.2224 4.93825C17.2009 4.90853 17.1848 4.8626 17.2063 4.82838C17.2242 4.80046 17.2573 4.78605 17.2886 4.77884C17.517 4.73201 17.7516 4.7059 17.9969 4.7059ZM6.66942 4.70581C6.91476 4.70581 7.14936 4.73192 7.37858 4.77875C7.40903 4.78596 7.44305 4.80127 7.46096 4.82829C7.48155 4.86251 7.46633 4.90844 7.44484 4.93816C6.76702 5.89371 6.37663 7.05909 6.37663 8.30913C6.37663 9.50694 6.73389 10.6228 7.36068 11.5504C7.42514 11.6459 7.36784 11.7747 7.25412 11.7945C7.09653 11.8224 6.93536 11.8368 6.77061 11.8413C5.12754 11.8845 3.65281 10.8209 3.2454 9.21965C2.64101 6.84114 4.41301 4.70581 6.66942 4.70581Z" fill="white"/>
</svg>
