<svg width="32" height="32" viewBox="0 0 32 32" fill="none" xmlns="http://www.w3.org/2000/svg">
<path fill-rule="evenodd" clip-rule="evenodd" d="M16.0057 19.6343C16.7246 19.6343 17.3057 20.2154 17.3057 20.9343C17.3057 21.6532 16.7246 22.2343 16.0057 22.2343C15.2868 22.2343 14.6992 21.6532 14.6992 20.9343C14.6992 20.2154 15.2751 19.6343 15.9927 19.6343H16.0057ZM15.993 10.0898C16.5312 10.0898 16.968 10.5266 16.968 11.0648V16.8095C16.968 17.3477 16.5312 17.7845 15.993 17.7845C15.4548 17.7845 15.018 17.3477 15.018 16.8095V11.0648C15.018 10.5266 15.4548 10.0898 15.993 10.0898Z" fill="white"/>
<path d="M16 5C22.0645 5 27 9.93549 27 16C27 22.0645 22.0645 27 16 27C9.93549 27 5 22.0645 5 16C5 9.93549 9.93549 5 16 5Z" stroke="white" stroke-width="2"/>
</svg>
