<svg width="25" height="24" viewBox="0 0 25 24" fill="none" xmlns="http://www.w3.org/2000/svg">
<path d="M8.58699 13.4697C9.99699 13.4697 11.127 14.6107 11.127 16.0307V19.4397C11.127 20.8497 9.99699 21.9997 8.58699 21.9997H5.20699C3.80699 21.9997 2.66699 20.8497 2.66699 19.4397V16.0307C2.66699 14.6107 3.80699 13.4697 5.20699 13.4697H8.58699ZM20.1271 13.4697C21.5271 13.4697 22.6671 14.6107 22.6671 16.0307V19.4397C22.6671 20.8497 21.5271 21.9997 20.1271 21.9997H16.7471C15.3371 21.9997 14.2071 20.8497 14.2071 19.4397V16.0307C14.2071 14.6107 15.3371 13.4697 16.7471 13.4697H20.1271ZM8.58699 2C9.99699 2 11.127 3.15 11.127 4.561V7.97C11.127 9.39 9.99699 10.53 8.58699 10.53H5.20699C3.80699 10.53 2.66699 9.39 2.66699 7.97V4.561C2.66699 3.15 3.80699 2 5.20699 2H8.58699ZM20.1271 2C21.5271 2 22.6671 3.15 22.6671 4.561V7.97C22.6671 9.39 21.5271 10.53 20.1271 10.53H16.7471C15.3371 10.53 14.2071 9.39 14.2071 7.97V4.561C14.2071 3.15 15.3371 2 16.7471 2H20.1271Z" fill="white"/>
</svg>
