<svg width="24" height="24" viewBox="0 0 24 24" fill="none" xmlns="http://www.w3.org/2000/svg">
<path fill-rule="evenodd" clip-rule="evenodd" d="M12 1.75C17.652 1.75 22.25 6.348 22.25 12C22.25 17.652 17.652 22.25 12 22.25C6.348 22.25 1.75 17.652 1.75 12C1.75 6.348 6.348 1.75 12 1.75ZM12 3.25C7.175 3.25 3.25 7.175 3.25 12C3.25 16.825 7.175 20.75 12 20.75C16.825 20.75 20.75 16.825 20.75 12C20.75 7.175 16.825 3.25 12 3.25ZM11.5808 8.5114C12.1008 8.7284 15.7498 10.5974 15.7498 11.9954C15.7498 13.3054 12.4658 15.1374 11.6268 15.4874C11.2998 15.6234 10.9268 15.7514 10.5778 15.7514C10.3078 15.7514 10.0518 15.6744 9.8428 15.4664C9.6818 15.3074 9.2518 14.8824 9.2498 12.0834C9.2488 9.1114 9.6958 8.6694 9.8428 8.5224C10.3658 8.0044 11.2178 8.3594 11.5808 8.5114ZM10.8838 9.8364C10.7068 10.8374 10.7038 13.2284 10.8808 14.1784C11.7588 13.8684 13.6608 12.6184 14.1728 11.9994C13.6628 11.3984 11.7848 10.1744 10.8838 9.8364Z" fill="#242424"/>
</svg>
