<svg width="24" height="24" viewBox="0 0 24 24" fill="none" xmlns="http://www.w3.org/2000/svg">
<g id="Category">
<path id="Combined-Shape" d="M16.7561 5.71397C17.1358 5.71397 17.4496 5.99613 17.4993 6.3622L17.5061 6.46397L17.506 18.264L20.3022 15.4565C20.5944 15.163 21.0693 15.1619 21.3629 15.4541C21.6298 15.7197 21.6549 16.1363 21.4378 16.4305L21.3653 16.5147L17.2876 20.6114C17.263 20.6355 17.238 20.6575 17.2116 20.6777L17.2876 20.6114C17.2508 20.6484 17.2111 20.6807 17.1692 20.7084C17.1546 20.7175 17.1395 20.7268 17.1239 20.7355C17.1095 20.7442 17.0949 20.7518 17.08 20.7589C17.0654 20.7654 17.0505 20.7719 17.0354 20.778C17.0163 20.7862 16.9966 20.7932 16.9767 20.7993C16.965 20.8024 16.953 20.8058 16.9409 20.8088C16.9193 20.8148 16.8976 20.8192 16.8757 20.8227C16.8655 20.8239 16.8548 20.8254 16.844 20.8267C16.8194 20.83 16.7949 20.8317 16.7705 20.8322C16.7657 20.8317 16.7609 20.8318 16.7561 20.8318L16.7415 20.8322C16.7171 20.8317 16.6926 20.83 16.6683 20.8272L16.7561 20.8318C16.7153 20.8318 16.6752 20.8285 16.6361 20.8222C16.6144 20.8192 16.5927 20.8148 16.5712 20.8093C16.5599 20.8059 16.5485 20.8027 16.5372 20.7993C16.5157 20.7933 16.4943 20.7857 16.4733 20.7772C16.4617 20.7719 16.4506 20.767 16.4397 20.7619C16.4224 20.7545 16.4051 20.7457 16.388 20.7361C16.3727 20.7267 16.3576 20.7174 16.3428 20.7077C16.3312 20.7008 16.3199 20.6928 16.3087 20.6844L16.3007 20.6777C16.2743 20.6575 16.2492 20.6355 16.2258 20.6121L16.2244 20.6114L12.1467 16.5147C11.8545 16.2212 11.8555 15.7463 12.1491 15.4541C12.416 15.1884 12.8327 15.1652 13.1258 15.3837L13.2098 15.4565L16.006 18.266L16.0061 6.46397C16.0061 6.04976 16.3419 5.71397 16.7561 5.71397ZM6.82767 3.00042L6.84228 3C6.86672 3.00047 6.89114 3.00213 6.91545 3.00497L6.82767 3.00042C6.86852 3.00042 6.90862 3.00368 6.9477 3.00997C6.96908 3.01289 6.99054 3.01731 7.01181 3.02267C7.02431 3.02634 7.03706 3.02992 7.04967 3.03382C7.06937 3.03937 7.08842 3.04612 7.10724 3.05366C7.12084 3.05972 7.13462 3.06574 7.14817 3.07215C7.16427 3.07911 7.18013 3.08731 7.19574 3.09611C7.20911 3.10434 7.22235 3.11236 7.23531 3.12076C7.24864 3.12869 7.26199 3.13797 7.2751 3.14773L7.35933 3.22076L11.4371 7.31742C11.7293 7.61099 11.7282 8.08587 11.4347 8.37808C11.1678 8.64373 10.7511 8.66698 10.458 8.44844L10.374 8.37563L7.577 5.565L7.57767 17.3682C7.57767 17.7824 7.24188 18.1182 6.82767 18.1182C6.44797 18.1182 6.13418 17.836 6.08451 17.47L6.07767 17.3682L6.077 5.566L3.28155 8.37563C3.0159 8.64251 2.5993 8.66768 2.30518 8.4505L2.2209 8.37808C1.95402 8.11243 1.92885 7.69582 2.14602 7.40171L2.21845 7.31742L6.29622 3.22076L6.34038 3.18026C6.35076 3.17139 6.36137 3.16279 6.37222 3.15449L6.29622 3.22076C6.33301 3.1838 6.3727 3.15147 6.41455 3.12379C6.42915 3.11469 6.44432 3.1054 6.45984 3.09665C6.47425 3.08797 6.4889 3.08035 6.50373 3.07325C6.51838 3.06676 6.53323 3.06022 6.54833 3.05416C6.56751 3.04596 6.58719 3.03901 6.60707 3.03291C6.61917 3.02966 6.63155 3.0262 6.64406 3.02305C6.66421 3.01752 6.68458 3.01329 6.70506 3.00991C6.71738 3.00837 6.72945 3.00669 6.74161 3.0053C6.76476 3.00212 6.78851 3.00051 6.81228 3.00002C6.81753 3.00047 6.82259 3.00042 6.82767 3.00042Z" fill="#6167FF"/>
</g>
</svg>
