<svg width="22" height="22" viewBox="0 0 22 22" fill="none" xmlns="http://www.w3.org/2000/svg">
<path fill-rule="evenodd" clip-rule="evenodd" d="M11 0.75C16.652 0.75 21.25 5.348 21.25 11C21.25 16.652 16.652 21.25 11 21.25C5.348 21.25 0.75 16.652 0.75 11C0.75 5.348 5.348 0.75 11 0.75ZM11 2.25C6.175 2.25 2.25 6.175 2.25 11C2.25 15.825 6.175 19.75 11 19.75C15.825 19.75 19.75 15.825 19.75 11C19.75 6.175 15.825 2.25 11 2.25ZM10.5808 7.5114C11.1008 7.7284 14.7498 9.5974 14.7498 10.9954C14.7498 12.3054 11.4658 14.1374 10.6268 14.4874C10.2998 14.6234 9.9268 14.7514 9.5778 14.7514C9.3078 14.7514 9.0518 14.6744 8.8428 14.4664C8.6818 14.3074 8.2518 13.8824 8.2498 11.0834C8.2488 8.1114 8.6958 7.6694 8.8428 7.5224C9.3658 7.0044 10.2178 7.3594 10.5808 7.5114ZM9.8838 8.8364C9.7068 9.8374 9.7038 12.2284 9.8808 13.1784C10.7588 12.8684 12.6608 11.6184 13.1728 10.9994C12.6628 10.3984 10.7848 9.1744 9.8838 8.8364Z" fill="#3C3C43" fill-opacity="0.3"/>
</svg>
