<svg width="25" height="24" viewBox="0 0 25 24" fill="none" xmlns="http://www.w3.org/2000/svg">
<path d="M20.8347 10.3353H20.15V10.3H12.5V13.7H17.3038C16.603 15.6792 14.7198 17.1 12.5 17.1C9.68353 17.1 7.4 14.8165 7.4 12C7.4 9.18353 9.68353 6.9 12.5 6.9C13.8001 6.9 14.9829 7.39045 15.8834 8.19158L18.2877 5.78735C16.7696 4.37253 14.7389 3.5 12.5 3.5C7.80588 3.5 4 7.30588 4 12C4 16.6941 7.80588 20.5 12.5 20.5C17.1941 20.5 21 16.6941 21 12C21 11.4301 20.9414 10.8738 20.8347 10.3353Z" fill="#FFC107"/>
<path d="M4.97998 8.04367L7.77266 10.0918C8.52831 8.2209 10.3584 6.9 12.4999 6.9C13.8 6.9 14.9828 7.39045 15.8834 8.19158L18.2876 5.78735C16.7695 4.37253 14.7388 3.5 12.4999 3.5C9.23508 3.5 6.40373 5.34323 4.97998 8.04367Z" fill="#FF3D00"/>
<path d="M12.5 20.5C14.6956 20.5 16.6905 19.6598 18.1989 18.2934L15.5681 16.0673C14.6861 16.7381 13.6082 17.1009 12.5 17.1C10.2892 17.1 8.41197 15.6903 7.70477 13.723L4.93292 15.8586C6.33967 18.6113 9.19652 20.5 12.5 20.5Z" fill="#4CAF50"/>
<path d="M20.8347 10.3353L20.82 10.3H20.15H12.5V13.7H17.3038C16.9685 14.642 16.3647 15.4651 15.5668 16.0677L15.5681 16.0668L18.1988 18.293C18.0127 18.4621 21 16.25 21 12C21 11.4301 20.9413 10.8738 20.8347 10.3353Z" fill="#1976D2"/>
</svg>
