<svg width="242" height="20" viewBox="0 0 242 20" fill="none" xmlns="http://www.w3.org/2000/svg">
<g clip-path="url(#clip0_5211_40913)">
<path fill-rule="evenodd" clip-rule="evenodd" d="M17 0C16.4477 0 16 0.447715 16 1V19C16 19.5523 16.4477 20 17 20C17.5523 20 18 19.5523 18 19V1C18 0.447715 17.5523 0 17 0ZM12 3C12 2.44772 12.4477 2 13 2C13.5523 2 14 2.44772 14 3V19C14 19.5523 13.5523 20 13 20C12.4477 20 12 19.5523 12 19V3ZM0 4C0 3.44772 0.447715 3 1 3C1.55228 3 2 3.44772 2 4V19C2 19.5523 1.55228 20 1 20C0.447715 20 0 19.5523 0 19V4ZM4 15C4 14.4477 4.44772 14 5 14C5.55228 14 6 14.4477 6 15V19C6 19.5523 5.55228 20 5 20C4.44772 20 4 19.5523 4 19V15ZM9 8C8.44771 8 8 8.44771 8 9V19C8 19.5523 8.44771 20 9 20C9.55229 20 10 19.5523 10 19V9C10 8.44772 9.55229 8 9 8ZM20 5C20 4.44772 20.4477 4 21 4C21.5523 4 22 4.44772 22 5V19C22 19.5523 21.5523 20 21 20C20.4477 20 20 19.5523 20 19V5ZM25 6C24.4477 6 24 6.44772 24 7V19C24 19.5523 24.4477 20 25 20C25.5523 20 26 19.5523 26 19V7C26 6.44772 25.5523 6 25 6ZM28 14C28 13.4477 28.4477 13 29 13C29.5523 13 30 13.4477 30 14V19C30 19.5523 29.5523 20 29 20C28.4477 20 28 19.5523 28 19V14ZM33 11C32.4477 11 32 11.4477 32 12V19C32 19.5523 32.4477 20 33 20C33.5523 20 34 19.5523 34 19V12C34 11.4477 33.5523 11 33 11ZM36 4C36 3.44772 36.4477 3 37 3C37.5523 3 38 3.44772 38 4V19C38 19.5523 37.5523 20 37 20C36.4477 20 36 19.5523 36 19V4ZM41 1C40.4477 1 40 1.44771 40 2V19C40 19.5523 40.4477 20 41 20C41.5523 20 42 19.5523 42 19V2C42 1.44772 41.5523 1 41 1ZM44 4C44 3.44772 44.4477 3 45 3C45.5523 3 46 3.44772 46 4V19C46 19.5523 45.5523 20 45 20C44.4477 20 44 19.5523 44 19V4ZM49 7C48.4477 7 48 7.44772 48 8V19C48 19.5523 48.4477 20 49 20C49.5523 20 50 19.5523 50 19V8C50 7.44772 49.5523 7 49 7ZM52 16C52 15.4477 52.4477 15 53 15C53.5523 15 54 15.4477 54 16V19C54 19.5523 53.5523 20 53 20C52.4477 20 52 19.5523 52 19V16ZM57 17C56.4477 17 56 17.4477 56 18V19C56 19.5523 56.4477 20 57 20C57.5523 20 58 19.5523 58 19V18C58 17.4477 57.5523 17 57 17ZM60 3C60 2.44772 60.4477 2 61 2C61.5523 2 62 2.44772 62 3V19C62 19.5523 61.5523 20 61 20C60.4477 20 60 19.5523 60 19V3ZM65 4C64.4477 4 64 4.44772 64 5V19C64 19.5523 64.4477 20 65 20C65.5523 20 66 19.5523 66 19V5C66 4.44772 65.5523 4 65 4Z" fill="url(#paint0_linear_5211_40913)"/>
<rect x="68" y="2" width="2" height="18" rx="1" fill="#3C3C43" fill-opacity="0.3"/>
<rect x="72" y="7" width="2" height="13" rx="1" fill="#3C3C43" fill-opacity="0.3"/>
<rect x="76" y="3" width="2" height="17" rx="1" fill="#3C3C43" fill-opacity="0.3"/>
<rect x="80" y="4" width="2" height="16" rx="1" fill="#3C3C43" fill-opacity="0.3"/>
<rect x="84" y="3" width="2" height="17" rx="1" fill="#3C3C43" fill-opacity="0.3"/>
<rect x="88" width="2" height="20" rx="1" fill="#3C3C43" fill-opacity="0.3"/>
<rect x="92" y="1" width="2" height="19" rx="1" fill="#3C3C43" fill-opacity="0.3"/>
<rect x="96" y="1" width="2" height="19" rx="1" fill="#3C3C43" fill-opacity="0.3"/>
<rect x="100" y="4" width="2" height="16" rx="1" fill="#3C3C43" fill-opacity="0.3"/>
<rect x="104" width="2" height="20" rx="1" fill="#3C3C43" fill-opacity="0.3"/>
<rect x="108" y="18" width="2" height="2" rx="1" fill="#3C3C43" fill-opacity="0.3"/>
<rect x="112" y="18" width="2" height="2" rx="1" fill="#3C3C43" fill-opacity="0.3"/>
<rect x="116" y="2" width="2" height="18" rx="1" fill="#3C3C43" fill-opacity="0.3"/>
<rect x="120" y="7" width="2" height="13" rx="1" fill="#3C3C43" fill-opacity="0.3"/>
<rect x="124" y="3" width="2" height="17" rx="1" fill="#3C3C43" fill-opacity="0.3"/>
<rect x="128" y="18" width="2" height="2" rx="1" fill="#3C3C43" fill-opacity="0.3"/>
<rect x="132" y="18" width="2" height="2" rx="1" fill="#3C3C43" fill-opacity="0.3"/>
<rect x="136" y="18" width="2" height="2" rx="1" fill="#3C3C43" fill-opacity="0.3"/>
<rect x="140" y="18" width="2" height="2" rx="1" fill="#3C3C43" fill-opacity="0.3"/>
<rect x="144" y="4" width="2" height="16" rx="1" fill="#3C3C43" fill-opacity="0.3"/>
<rect x="148" y="3" width="2" height="17" rx="1" fill="#3C3C43" fill-opacity="0.3"/>
<rect x="152" width="2" height="20" rx="1" fill="#3C3C43" fill-opacity="0.3"/>
<rect x="156" y="1" width="2" height="19" rx="1" fill="#3C3C43" fill-opacity="0.3"/>
<rect x="160" y="1" width="2" height="19" rx="1" fill="#3C3C43" fill-opacity="0.3"/>
<rect x="164" y="18" width="2" height="2" rx="1" fill="#3C3C43" fill-opacity="0.3"/>
<rect x="168" y="18" width="2" height="2" rx="1" fill="#3C3C43" fill-opacity="0.3"/>
<rect x="172" y="18" width="2" height="2" rx="1" fill="#3C3C43" fill-opacity="0.3"/>
<rect x="176" y="18" width="2" height="2" rx="1" fill="#3C3C43" fill-opacity="0.3"/>
<rect x="180" y="18" width="2" height="2" rx="1" fill="#3C3C43" fill-opacity="0.3"/>
<rect x="184" y="18" width="2" height="2" rx="1" fill="#3C3C43" fill-opacity="0.3"/>
<rect x="188" y="4" width="2" height="16" rx="1" fill="#3C3C43" fill-opacity="0.3"/>
<rect x="192" y="3" width="2" height="17" rx="1" fill="#3C3C43" fill-opacity="0.3"/>
<rect x="196" width="2" height="20" rx="1" fill="#3C3C43" fill-opacity="0.3"/>
<rect x="200" y="1" width="2" height="19" rx="1" fill="#3C3C43" fill-opacity="0.3"/>
<rect x="204" y="1" width="2" height="19" rx="1" fill="#3C3C43" fill-opacity="0.3"/>
<rect x="208" y="4" width="2" height="16" rx="1" fill="#3C3C43" fill-opacity="0.3"/>
<rect x="212" y="3" width="2" height="17" rx="1" fill="#3C3C43" fill-opacity="0.3"/>
<rect x="216" width="2" height="20" rx="1" fill="#3C3C43" fill-opacity="0.3"/>
<rect x="220" y="1" width="2" height="19" rx="1" fill="#3C3C43" fill-opacity="0.3"/>
<rect x="224" y="1" width="2" height="19" rx="1" fill="#3C3C43" fill-opacity="0.3"/>
<rect x="228" y="18" width="2" height="2" rx="1" fill="#3C3C43" fill-opacity="0.3"/>
<rect x="232" y="18" width="2" height="2" rx="1" fill="#3C3C43" fill-opacity="0.3"/>
<rect x="236" y="18" width="2" height="2" rx="1" fill="#3C3C43" fill-opacity="0.3"/>
<rect x="240" y="18" width="2" height="2" rx="1" fill="#3C3C43" fill-opacity="0.3"/>
</g>
<defs>
<linearGradient id="paint0_linear_5211_40913" x1="7.52344e-07" y1="10" x2="212.274" y2="77.9104" gradientUnits="userSpaceOnUse">
<stop stop-color="#6167FF"/>
<stop offset="0.239583" stop-color="#9E59FF"/>
<stop offset="0.5" stop-color="#DD60D8"/>
<stop offset="1" stop-color="#FF80AD"/>
</linearGradient>
<clipPath id="clip0_5211_40913">
<rect width="242" height="20" fill="white"/>
</clipPath>
</defs>
</svg>
