<svg width="24" height="24" viewBox="0 0 24 24" fill="none" xmlns="http://www.w3.org/2000/svg">
<path d="M12 1.99902C17.53 1.99902 22 6.48002 22 11.999C22 17.52 17.53 21.999 12 21.999C6.48 21.999 2 17.52 2 11.999C2 6.48002 6.48 1.99902 12 1.99902ZM12 14.93C11.52 14.93 11.13 15.32 11.13 15.8C11.13 16.28 11.52 16.68 12.01 16.68C12.49 16.68 12.88 16.28 12.88 15.8C12.88 15.32 12.49 14.93 12 14.93ZM12 7.32902C11.52 7.32902 11.12 7.73002 11.12 8.20902V12.629C11.12 13.11 11.52 13.499 12 13.499C12.48 13.499 12.87 13.11 12.87 12.629V8.20902C12.87 7.73002 12.48 7.32902 12 7.32902Z" fill="#3C3C43" fill-opacity="0.6"/>
</svg>
