<svg width="24" height="24" viewBox="0 0 24 24" fill="none" xmlns="http://www.w3.org/2000/svg">
<g id="Play">
<path id="Subtract" fill-rule="evenodd" clip-rule="evenodd" d="M22 12C22 6.48585 17.5141 2 12 2C6.48585 2 2 6.48585 2 12C2 17.5141 6.48585 22 12 22C17.5141 22 22 17.5141 22 12ZM7.57508 8.88236C7.65594 8.23546 8.20586 7.75 8.8578 7.75H9.64184C10.2938 7.75 10.8437 8.23546 10.9246 8.88236C11.1418 10.6207 11.1418 13.3793 10.9246 15.1176C10.8437 15.7645 10.2938 16.25 9.64184 16.25H8.8578C8.20586 16.25 7.65594 15.7645 7.57508 15.1176C7.35779 13.3793 7.35779 10.6207 7.57508 8.88236ZM14.3578 7.75C13.7059 7.75 13.1559 8.23546 13.0751 8.88236C12.8578 10.6207 12.8578 13.3793 13.0751 15.1176C13.1559 15.7645 13.7059 16.25 14.3578 16.25H15.1418C15.7938 16.25 16.3437 15.7645 16.4246 15.1176C16.6418 13.3793 16.6418 10.6207 16.4246 8.88236C16.3437 8.23546 15.7938 7.75 15.1418 7.75H14.3578Z" fill="white"/>
</g>
</svg>
