<svg width="33" height="32" viewBox="0 0 33 32" fill="none" xmlns="http://www.w3.org/2000/svg">
<g id="Frame 2043682401">
<path id="Vector" d="M28.0409 15.3652L24.5977 14.3791C23.0471 13.941 21.6347 13.1114 20.4956 11.9698C19.3564 10.8282 18.5286 9.4127 18.0915 7.85878L17.1075 4.40813C17.0581 4.2874 16.9739 4.18414 16.8657 4.11147C16.7575 4.0388 16.6302 4 16.5 4C16.3698 4 16.2425 4.0388 16.1343 4.11147C16.0261 4.18414 15.9419 4.2874 15.8925 4.40813L14.9085 7.85878C14.4714 9.4127 13.6436 10.8282 12.5044 11.9698C11.3653 13.1114 9.95286 13.941 8.4023 14.3791L4.9591 15.3652C4.8269 15.4028 4.71054 15.4826 4.62768 15.5924C4.54483 15.7023 4.5 15.8363 4.5 15.974C4.5 16.1117 4.54483 16.2457 4.62768 16.3556C4.71054 16.4655 4.8269 16.5453 4.9591 16.5829L8.4023 17.569C9.95286 18.0071 11.3653 18.8366 12.5044 19.9782C13.6436 21.1198 14.4714 22.5353 14.9085 24.0893L15.8925 27.5399C15.93 27.6724 16.0096 27.789 16.1192 27.872C16.2289 27.9551 16.3626 28 16.5 28C16.6374 28 16.7711 27.9551 16.8808 27.872C16.9904 27.789 17.07 27.6724 17.1075 27.5399L18.0915 24.0893C18.5286 22.5353 19.3564 21.1198 20.4956 19.9782C21.6347 18.8366 23.0471 18.0071 24.5977 17.569L28.0409 16.5829C28.1731 16.5453 28.2895 16.4655 28.3723 16.3556C28.4552 16.2457 28.5 16.1117 28.5 15.974C28.5 15.8363 28.4552 15.7023 28.3723 15.5924C28.2895 15.4826 28.1731 15.4028 28.0409 15.3652Z" fill="white"/>
</g>
</svg>
