<svg width="24" height="24" viewBox="0 0 24 24" fill="none" xmlns="http://www.w3.org/2000/svg">
<path d="M8.28002 2.50113C8.91002 2.52029 9.52002 2.63029 10.111 2.83129H10.17C10.21 2.85029 10.24 2.87129 10.26 2.89029C10.481 2.96129 10.69 3.04129 10.89 3.15129L11.27 3.32129C11.42 3.40129 11.6 3.55029 11.7 3.61129C11.8 3.67029 11.91 3.73129 12 3.80029C13.111 2.95129 14.46 2.49129 15.85 2.50113C16.481 2.50113 17.111 2.59029 17.71 2.79129C21.401 3.99129 22.731 8.04129 21.62 11.5813C20.99 13.3903 19.96 15.0413 18.611 16.3903C16.68 18.2603 14.561 19.9203 12.28 21.3503L12.03 21.5013L11.77 21.3403C9.48102 19.9203 7.35002 18.2603 5.40102 16.3803C4.06102 15.0313 3.03002 13.3903 2.39002 11.5813C1.26002 8.04129 2.59002 3.99129 6.32102 2.77029C6.61102 2.67029 6.91002 2.60029 7.21002 2.56129H7.33002C7.61102 2.52029 7.89002 2.50113 8.17002 2.50113H8.28002ZM17.19 5.66129C16.78 5.52029 16.33 5.74129 16.18 6.16129C16.04 6.58129 16.26 7.04129 16.68 7.19029C17.321 7.43029 17.75 8.06129 17.75 8.76029V8.79129C17.731 9.02029 17.8 9.24129 17.94 9.41129C18.08 9.58129 18.29 9.68029 18.51 9.70129C18.92 9.69029 19.27 9.36129 19.3 8.94029V8.82129C19.33 7.42029 18.481 6.15129 17.19 5.66129Z" fill="url(#paint0_linear_5211_46922)"/>
<defs>
<linearGradient id="paint0_linear_5211_46922" x1="11.9947" y1="21.5013" x2="13.7299" y2="2.66078" gradientUnits="userSpaceOnUse">
<stop stop-color="#6167FF"/>
<stop offset="1" stop-color="#8589FF"/>
</linearGradient>
</defs>
</svg>
