<svg width="32" height="32" viewBox="0 0 32 32" fill="none" xmlns="http://www.w3.org/2000/svg">
<path fill-rule="evenodd" clip-rule="evenodd" d="M21.3879 17.708C23.1039 17.708 24.4999 19.097 24.4999 20.804C24.4999 22.511 23.1039 23.9 21.3879 23.9C19.6709 23.9 18.2739 22.511 18.2739 20.804C18.2739 19.097 19.6709 17.708 21.3879 17.708ZM21.3879 19.208C20.4979 19.208 19.7739 19.924 19.7739 20.804C19.7739 21.685 20.4979 22.4 21.3879 22.4C22.2769 22.4 22.9999 21.685 22.9999 20.804C22.9999 19.924 22.2769 19.208 21.3879 19.208ZM14.0803 20.0928C14.4943 20.0928 14.8303 20.4288 14.8303 20.8428C14.8303 21.2568 14.4943 21.5928 14.0803 21.5928H7.7793C7.3653 21.5928 7.0293 21.2568 7.0293 20.8428C7.0293 20.4288 7.3653 20.0928 7.7793 20.0928H14.0803ZM10.113 8C11.83 8 13.226 9.39 13.226 11.097C13.226 12.804 11.83 14.192 10.113 14.192C8.397 14.192 7 12.804 7 11.097C7 9.39 8.397 8 10.113 8ZM10.113 9.5C9.224 9.5 8.5 10.216 8.5 11.097C8.5 11.977 9.224 12.692 10.113 12.692C11.003 12.692 11.726 11.977 11.726 11.097C11.726 10.216 11.003 9.5 10.113 9.5ZM23.1911 10.4004C23.6051 10.4004 23.9411 10.7364 23.9411 11.1504C23.9411 11.5644 23.6051 11.9004 23.1911 11.9004H16.8911C16.4771 11.9004 16.1411 11.5644 16.1411 11.1504C16.1411 10.7364 16.4771 10.4004 16.8911 10.4004H23.1911Z" fill="white"/>
</svg>
