<svg width="24" height="24" viewBox="0 0 24 24" fill="none" xmlns="http://www.w3.org/2000/svg">
<path d="M8.32797 13.3229C9.59697 13.3229 10.614 14.3498 10.614 15.6278V18.696C10.614 19.965 9.59697 21 8.32797 21H5.28599C4.02599 21 3 19.965 3 18.696V15.6278C3 14.3498 4.02599 13.3229 5.28599 13.3229H8.32797ZM18.714 13.3229C19.974 13.3229 21 14.3498 21 15.6278V18.696C21 19.965 19.974 21 18.714 21H15.672C14.403 21 13.386 19.965 13.386 18.696V15.6278C13.386 14.3498 14.403 13.3229 15.672 13.3229H18.714ZM8.32797 3C9.59697 3 10.614 4.03502 10.614 5.30493V8.37308C10.614 9.6511 9.59697 10.6771 8.32797 10.6771H5.28599C4.02599 10.6771 3 9.6511 3 8.37308V5.30493C3 4.03502 4.02599 3 5.28599 3H8.32797ZM18.714 3C19.974 3 21 4.03502 21 5.30493V8.37308C21 9.6511 19.974 10.6771 18.714 10.6771H15.672C14.403 10.6771 13.386 9.6511 13.386 8.37308V5.30493C13.386 4.03502 14.403 3 15.672 3H18.714Z" fill="#3C3C43" fill-opacity="0.6"/>
</svg>
