<svg width="24" height="24" viewBox="0 0 24 24" fill="none" xmlns="http://www.w3.org/2000/svg">
<g id="Play">
<g id="Union">
<path fill-rule="evenodd" clip-rule="evenodd" d="M7.10139 7.59092C6.9662 7.45574 6.9662 7.23657 7.10139 7.10139C7.23657 6.9662 7.45574 6.9662 7.59092 7.10139L12 11.5105L16.4091 7.10139C16.5443 6.9662 16.7634 6.9662 16.8986 7.10139C17.0338 7.23657 17.0338 7.45574 16.8986 7.59092L12.4895 12L16.8986 16.4091C17.0338 16.5443 17.0338 16.7634 16.8986 16.8986C16.7634 17.0338 16.5443 17.0338 16.4091 16.8986L12 12.4895L7.59092 16.8986C7.45574 17.0338 7.23657 17.0338 7.10139 16.8986C6.9662 16.7634 6.9662 16.5443 7.10139 16.4091L11.5105 12L7.10139 7.59092Z" fill="#EBEBF5" fill-opacity="0.6"/>
<path d="M7.10139 7.59092L6.92461 7.7677C6.6918 7.53489 6.6918 7.15742 6.92461 6.92461C7.15742 6.6918 7.53489 6.6918 7.7677 6.92461M7.10139 7.59092L7.7677 6.92461M7.10139 7.59092L6.92461 7.7677L11.1569 12L6.92461 16.2323C6.6918 16.4651 6.6918 16.8426 6.92461 17.0754C7.15742 17.3082 7.53489 17.3082 7.7677 17.0754L12 12.8431L16.2323 17.0754C16.4651 17.3082 16.8426 17.3082 17.0754 17.0754C17.3082 16.8426 17.3082 16.4651 17.0754 16.2323L12.8431 12L17.0754 7.7677C17.3082 7.53489 17.3082 7.15742 17.0754 6.92461C16.8426 6.6918 16.4651 6.6918 16.2323 6.92461L12 11.1569L7.7677 6.92461M7.10139 7.59092L7.7677 6.92461" stroke="#EBEBF5" stroke-opacity="0.6" stroke-width="0.5"/>
</g>
</g>
</svg>
