<svg width="18" height="14" viewBox="0 0 18 14" fill="none" xmlns="http://www.w3.org/2000/svg">
<path d="M17.25 6.99994C17.25 7.37964 16.9678 7.69343 16.6018 7.74309L16.5 7.74994L3.316 7.74934L8.07899 12.4929C8.37251 12.7851 8.37353 13.26 8.08127 13.5535C7.81558 13.8204 7.39897 13.8455 7.10489 13.6283L7.02061 13.5558L0.970613 7.53181C0.931923 7.49329 0.898317 7.45159 0.869795 7.40756C0.861738 7.39431 0.853539 7.38075 0.845764 7.36692C0.838614 7.35507 0.832151 7.34275 0.826056 7.33031C0.817589 7.3122 0.809317 7.29349 0.801805 7.2744C0.795702 7.25968 0.790607 7.24536 0.785959 7.23093C0.780434 7.21304 0.775064 7.19397 0.770447 7.17461C0.767014 7.1611 0.764294 7.14809 0.761923 7.13503C0.758587 7.1156 0.755749 7.09549 0.753723 7.07514C0.751974 7.05962 0.750921 7.04425 0.75034 7.02886C0.750189 7.01953 0.75 7.00976 0.75 6.99994L0.750376 6.97089C0.75095 6.95617 0.751955 6.94146 0.753393 6.92679L0.75 6.99994C0.75 6.95261 0.754383 6.90631 0.762768 6.86141C0.764711 6.85069 0.767029 6.83968 0.769594 6.82872C0.774921 6.80614 0.781078 6.7844 0.788168 6.76308C0.791647 6.75249 0.795702 6.74118 0.800034 6.72995C0.808798 6.70738 0.818325 6.68587 0.828804 6.66491C0.833673 6.65506 0.839125 6.64474 0.844835 6.63453C0.854208 6.61788 0.863863 6.60205 0.874073 6.58662C0.881277 6.57569 0.889254 6.56433 0.897583 6.55314L0.904074 6.5445C0.92428 6.5181 0.946201 6.49308 0.969669 6.46961L0.97057 6.46891L7.02057 0.443915C7.31407 0.151629 7.78894 0.152612 8.08123 0.446111C8.34694 0.712928 8.37029 1.12964 8.15182 1.4228L8.07903 1.50677L3.318 6.24934L16.5 6.24994C16.9142 6.24994 17.25 6.58573 17.25 6.99994Z" fill="#242424"/>
</svg>
