<svg width="18" height="14" viewBox="0 0 18 14" fill="none" xmlns="http://www.w3.org/2000/svg">
<path d="M17.25 7.00019C17.25 7.37988 16.9678 7.69368 16.6018 7.74334L16.5 7.75019L3.316 7.74959L8.07899 12.4931C8.37251 12.7854 8.37353 13.2603 8.08127 13.5538C7.81558 13.8206 7.39897 13.8457 7.10489 13.6285L7.02061 13.5561L0.970613 7.53206C0.931923 7.49353 0.898317 7.45184 0.869795 7.40781C0.861738 7.39456 0.853539 7.381 0.845764 7.36717C0.838614 7.35531 0.832151 7.343 0.826056 7.33055C0.817589 7.31244 0.809317 7.29373 0.801805 7.27464C0.795702 7.25992 0.790607 7.24561 0.785959 7.23118C0.780434 7.21328 0.775064 7.19422 0.770447 7.17486C0.767014 7.16134 0.764294 7.14833 0.761923 7.13527C0.758587 7.11584 0.755749 7.09573 0.753723 7.07539C0.751974 7.05987 0.750921 7.04449 0.75034 7.0291C0.750189 7.01977 0.75 7.01 0.75 7.00019L0.750376 6.97113C0.75095 6.95641 0.751955 6.94171 0.753393 6.92703L0.75 7.00019C0.75 6.95286 0.754383 6.90655 0.762768 6.86166C0.764711 6.85093 0.767029 6.83992 0.769594 6.82896C0.774921 6.80639 0.781078 6.78464 0.788168 6.76333C0.791647 6.75274 0.795702 6.74142 0.800034 6.73019C0.808798 6.70763 0.818325 6.68611 0.828804 6.66516C0.833673 6.6553 0.839125 6.64499 0.844835 6.63478C0.854208 6.61812 0.863863 6.60229 0.874073 6.58686C0.881277 6.57594 0.889254 6.56457 0.897583 6.55338L0.904074 6.54474C0.92428 6.51834 0.946201 6.49332 0.969669 6.46986L0.97057 6.46916L7.02057 0.444159C7.31407 0.151873 7.78894 0.152856 8.08123 0.446355C8.34694 0.713172 8.37029 1.12989 8.15182 1.42305L8.07903 1.50701L3.318 6.24959L16.5 6.25019C16.9142 6.25019 17.25 6.58597 17.25 7.00019Z" fill="white"/>
</svg>
