<svg width="24" height="24" viewBox="0 0 24 24" fill="none" xmlns="http://www.w3.org/2000/svg">
<g id="Bookmark">
<path id="Vector" d="M21.6174 11.471L18.7481 10.6492C17.4559 10.2841 16.2789 9.59286 15.3296 8.64151C14.3803 7.69016 13.6905 6.51058 13.3263 5.21565L12.5063 2.3401C12.4651 2.2395 12.3949 2.15345 12.3048 2.09289C12.2146 2.03233 12.1085 2 12 2C11.8915 2 11.7854 2.03233 11.6952 2.09289C11.6051 2.15345 11.5349 2.2395 11.4937 2.3401L10.6737 5.21565C10.3095 6.51058 9.61967 7.69016 8.67037 8.64151C7.72108 9.59286 6.54405 10.2841 5.25192 10.6492L2.38259 11.471C2.27241 11.5023 2.17545 11.5688 2.1064 11.6604C2.03736 11.7519 2 11.8636 2 11.9783C2 12.0931 2.03736 12.2048 2.1064 12.2963C2.17545 12.3879 2.27241 12.4544 2.38259 12.4857L5.25192 13.3075C6.54405 13.6725 7.72108 14.3638 8.67037 15.3152C9.61967 16.2665 10.3095 17.4461 10.6737 18.741L11.4937 21.6166C11.525 21.727 11.5913 21.8242 11.6827 21.8934C11.7741 21.9626 11.8855 22 12 22C12.1145 22 12.2259 21.9626 12.3173 21.8934C12.4087 21.8242 12.475 21.727 12.5063 21.6166L13.3263 18.741C13.6905 17.4461 14.3803 16.2665 15.3296 15.3152C16.2789 14.3638 17.4559 13.6725 18.7481 13.3075L21.6174 12.4857C21.7276 12.4544 21.8246 12.3879 21.8936 12.2963C21.9626 12.2048 22 12.0931 22 11.9783C22 11.8636 21.9626 11.7519 21.8936 11.6604C21.8246 11.5688 21.7276 11.5023 21.6174 11.471Z" fill="#FDA43C"/>
</g>
</svg>
