<svg width="24" height="24" viewBox="0 0 24 24" fill="none" xmlns="http://www.w3.org/2000/svg">
<path fill-rule="evenodd" clip-rule="evenodd" d="M10.25 1C10.3199 1 12.8886 1.0005 12.9562 1.00131C16.8252 1.04792 17 2.42935 17 5.25009C17 5.28924 17 12.829 17 12.8675C16.9996 14.2445 16.9836 15.2324 16.396 15.961C15.7296 16.7885 14.5392 16.9853 12.9562 17.0001C12.8882 17.0007 10.3194 17.001 10.25 17.001C8.564 17.001 7.299 16.824 6.604 15.961C6.01311 15.2282 6.00028 14.2342 6.00001 12.8675C6 12.8286 6 13.2889 6 5.25002C6 2.38001 6.181 1 10.25 1ZM12.9562 2.50054L10.25 2.50001C7.64103 2.50001 7.50723 2.68722 7.50037 4.87707L7.50055 5.25002L7.50061 12.8675L7.50079 13.2311C7.50553 14.1021 7.53871 14.7313 7.771 15.021C8.036 15.349 8.823 15.501 10.25 15.501C10.3203 15.501 12.889 15.5006 12.9562 15.4999C14.2532 15.4855 14.977 15.3318 15.229 15.02C15.4924 14.6925 15.4998 13.9275 15.5 12.8675C15.5 12.8369 15.5 5.30517 15.5 5.27409C15.5 2.77387 15.5 2.51231 12.9562 2.50054Z" fill="#242424"/>
<path fill-rule="evenodd" clip-rule="evenodd" d="M10.25 1C10.3199 1 12.8886 1.0005 12.9562 1.00131C16.8252 1.04792 17 2.42935 17 5.25009C17 5.28924 17 12.829 17 12.8675C16.9996 14.2445 16.9836 15.2324 16.396 15.961C15.7296 16.7885 14.5392 16.9853 12.9562 17.0001C12.8882 17.0007 10.3194 17.001 10.25 17.001C8.564 17.001 7.299 16.824 6.604 15.961C6.01311 15.2282 6.00028 14.2342 6.00001 12.8675C6 12.8286 6 13.2889 6 5.25002C6 2.38001 6.181 1 10.25 1ZM12.9562 2.50054L10.25 2.50001C7.64103 2.50001 7.50723 2.68722 7.50037 4.87707L7.50055 5.25002L7.50061 12.8675L7.50079 13.2311C7.50553 14.1021 7.53871 14.7313 7.771 15.021C8.036 15.349 8.823 15.501 10.25 15.501C10.3203 15.501 12.889 15.5006 12.9562 15.4999C14.2532 15.4855 14.977 15.3318 15.229 15.02C15.4924 14.6925 15.4998 13.9275 15.5 12.8675C15.5 12.8369 15.5 5.30517 15.5 5.27409C15.5 2.77387 15.5 2.51231 12.9562 2.50054Z" fill="black" fill-opacity="0.2"/>
<path fill-rule="evenodd" clip-rule="evenodd" d="M10.25 1C10.3199 1 12.8886 1.0005 12.9562 1.00131C16.8252 1.04792 17 2.42935 17 5.25009C17 5.28924 17 12.829 17 12.8675C16.9996 14.2445 16.9836 15.2324 16.396 15.961C15.7296 16.7885 14.5392 16.9853 12.9562 17.0001C12.8882 17.0007 10.3194 17.001 10.25 17.001C8.564 17.001 7.299 16.824 6.604 15.961C6.01311 15.2282 6.00028 14.2342 6.00001 12.8675C6 12.8286 6 13.2889 6 5.25002C6 2.38001 6.181 1 10.25 1ZM12.9562 2.50054L10.25 2.50001C7.64103 2.50001 7.50723 2.68722 7.50037 4.87707L7.50055 5.25002L7.50061 12.8675L7.50079 13.2311C7.50553 14.1021 7.53871 14.7313 7.771 15.021C8.036 15.349 8.823 15.501 10.25 15.501C10.3203 15.501 12.889 15.5006 12.9562 15.4999C14.2532 15.4855 14.977 15.3318 15.229 15.02C15.4924 14.6925 15.4998 13.9275 15.5 12.8675C15.5 12.8369 15.5 5.30517 15.5 5.27409C15.5 2.77387 15.5 2.51231 12.9562 2.50054Z" fill="black" fill-opacity="0.2"/>
<path fill-rule="evenodd" clip-rule="evenodd" d="M10.25 1C10.3199 1 12.8886 1.0005 12.9562 1.00131C16.8252 1.04792 17 2.42935 17 5.25009C17 5.28924 17 12.829 17 12.8675C16.9996 14.2445 16.9836 15.2324 16.396 15.961C15.7296 16.7885 14.5392 16.9853 12.9562 17.0001C12.8882 17.0007 10.3194 17.001 10.25 17.001C8.564 17.001 7.299 16.824 6.604 15.961C6.01311 15.2282 6.00028 14.2342 6.00001 12.8675C6 12.8286 6 13.2889 6 5.25002C6 2.38001 6.181 1 10.25 1ZM12.9562 2.50054L10.25 2.50001C7.64103 2.50001 7.50723 2.68722 7.50037 4.87707L7.50055 5.25002L7.50061 12.8675L7.50079 13.2311C7.50553 14.1021 7.53871 14.7313 7.771 15.021C8.036 15.349 8.823 15.501 10.25 15.501C10.3203 15.501 12.889 15.5006 12.9562 15.4999C14.2532 15.4855 14.977 15.3318 15.229 15.02C15.4924 14.6925 15.4998 13.9275 15.5 12.8675C15.5 12.8369 15.5 5.30517 15.5 5.27409C15.5 2.77387 15.5 2.51231 12.9562 2.50054Z" fill="black" fill-opacity="0.2"/>
<path fill-rule="evenodd" clip-rule="evenodd" d="M10.25 1C10.3199 1 12.8886 1.0005 12.9562 1.00131C16.8252 1.04792 17 2.42935 17 5.25009C17 5.28924 17 12.829 17 12.8675C16.9996 14.2445 16.9836 15.2324 16.396 15.961C15.7296 16.7885 14.5392 16.9853 12.9562 17.0001C12.8882 17.0007 10.3194 17.001 10.25 17.001C8.564 17.001 7.299 16.824 6.604 15.961C6.01311 15.2282 6.00028 14.2342 6.00001 12.8675C6 12.8286 6 13.2889 6 5.25002C6 2.38001 6.181 1 10.25 1ZM12.9562 2.50054L10.25 2.50001C7.64103 2.50001 7.50723 2.68722 7.50037 4.87707L7.50055 5.25002L7.50061 12.8675L7.50079 13.2311C7.50553 14.1021 7.53871 14.7313 7.771 15.021C8.036 15.349 8.823 15.501 10.25 15.501C10.3203 15.501 12.889 15.5006 12.9562 15.4999C14.2532 15.4855 14.977 15.3318 15.229 15.02C15.4924 14.6925 15.4998 13.9275 15.5 12.8675C15.5 12.8369 15.5 5.30517 15.5 5.27409C15.5 2.77387 15.5 2.51231 12.9562 2.50054Z" fill="black" fill-opacity="0.2"/>
<path fill-rule="evenodd" clip-rule="evenodd" d="M10.25 1C10.3199 1 12.8886 1.0005 12.9562 1.00131C16.8252 1.04792 17 2.42935 17 5.25009C17 5.28924 17 12.829 17 12.8675C16.9996 14.2445 16.9836 15.2324 16.396 15.961C15.7296 16.7885 14.5392 16.9853 12.9562 17.0001C12.8882 17.0007 10.3194 17.001 10.25 17.001C8.564 17.001 7.299 16.824 6.604 15.961C6.01311 15.2282 6.00028 14.2342 6.00001 12.8675C6 12.8286 6 13.2889 6 5.25002C6 2.38001 6.181 1 10.25 1ZM12.9562 2.50054L10.25 2.50001C7.64103 2.50001 7.50723 2.68722 7.50037 4.87707L7.50055 5.25002L7.50061 12.8675L7.50079 13.2311C7.50553 14.1021 7.53871 14.7313 7.771 15.021C8.036 15.349 8.823 15.501 10.25 15.501C10.3203 15.501 12.889 15.5006 12.9562 15.4999C14.2532 15.4855 14.977 15.3318 15.229 15.02C15.4924 14.6925 15.4998 13.9275 15.5 12.8675C15.5 12.8369 15.5 5.30517 15.5 5.27409C15.5 2.77387 15.5 2.51231 12.9562 2.50054Z" fill="black" fill-opacity="0.2"/>
<path fill-rule="evenodd" clip-rule="evenodd" d="M10.25 1C10.3199 1 12.8886 1.0005 12.9562 1.00131C16.8252 1.04792 17 2.42935 17 5.25009C17 5.28924 17 12.829 17 12.8675C16.9996 14.2445 16.9836 15.2324 16.396 15.961C15.7296 16.7885 14.5392 16.9853 12.9562 17.0001C12.8882 17.0007 10.3194 17.001 10.25 17.001C8.564 17.001 7.299 16.824 6.604 15.961C6.01311 15.2282 6.00028 14.2342 6.00001 12.8675C6 12.8286 6 13.2889 6 5.25002C6 2.38001 6.181 1 10.25 1ZM12.9562 2.50054L10.25 2.50001C7.64103 2.50001 7.50723 2.68722 7.50037 4.87707L7.50055 5.25002L7.50061 12.8675L7.50079 13.2311C7.50553 14.1021 7.53871 14.7313 7.771 15.021C8.036 15.349 8.823 15.501 10.25 15.501C10.3203 15.501 12.889 15.5006 12.9562 15.4999C14.2532 15.4855 14.977 15.3318 15.229 15.02C15.4924 14.6925 15.4998 13.9275 15.5 12.8675C15.5 12.8369 15.5 5.30517 15.5 5.27409C15.5 2.77387 15.5 2.51231 12.9562 2.50054Z" fill="black" fill-opacity="0.2"/>
<path fill-rule="evenodd" clip-rule="evenodd" d="M10.25 18.5C10.3198 18.5 12.8886 18.5013 12.9562 18.5013C15.2501 18.5013 17 18.5 17 21.0005C17 21.0396 17 21.3536 17 21.3921C17 23.9995 15.2501 23.9995 12.9562 23.9995C12.8882 24.0002 10.3194 24.0004 10.25 24.0004C7.74999 24.0004 5.99999 24.0004 5.99999 21.4309C5.99998 21.3921 6 24.5004 6 21.0005C6 18.5 7.74998 18.5 10.25 18.5ZM12.9562 20.0005L10.25 20C8.24998 20 7.50035 20.0004 7.50035 21.0004L7.50076 21.3535C7.50076 22.4993 8.24998 22.5004 10.25 22.5004C10.3202 22.5004 12.889 22.5001 12.9562 22.4993C14.7501 22.4993 15.5 22.4993 15.5 21.3536C15.5 21.323 15.5 21.0005 15.5 21.0005C15.5 20 14.7501 20.0005 12.9562 20.0005Z" fill="#242424"/>
<path fill-rule="evenodd" clip-rule="evenodd" d="M10.25 18.5C10.3198 18.5 12.8886 18.5013 12.9562 18.5013C15.2501 18.5013 17 18.5 17 21.0005C17 21.0396 17 21.3536 17 21.3921C17 23.9995 15.2501 23.9995 12.9562 23.9995C12.8882 24.0002 10.3194 24.0004 10.25 24.0004C7.74999 24.0004 5.99999 24.0004 5.99999 21.4309C5.99998 21.3921 6 24.5004 6 21.0005C6 18.5 7.74998 18.5 10.25 18.5ZM12.9562 20.0005L10.25 20C8.24998 20 7.50035 20.0004 7.50035 21.0004L7.50076 21.3535C7.50076 22.4993 8.24998 22.5004 10.25 22.5004C10.3202 22.5004 12.889 22.5001 12.9562 22.4993C14.7501 22.4993 15.5 22.4993 15.5 21.3536C15.5 21.323 15.5 21.0005 15.5 21.0005C15.5 20 14.7501 20.0005 12.9562 20.0005Z" fill="black" fill-opacity="0.2"/>
<path fill-rule="evenodd" clip-rule="evenodd" d="M10.25 18.5C10.3198 18.5 12.8886 18.5013 12.9562 18.5013C15.2501 18.5013 17 18.5 17 21.0005C17 21.0396 17 21.3536 17 21.3921C17 23.9995 15.2501 23.9995 12.9562 23.9995C12.8882 24.0002 10.3194 24.0004 10.25 24.0004C7.74999 24.0004 5.99999 24.0004 5.99999 21.4309C5.99998 21.3921 6 24.5004 6 21.0005C6 18.5 7.74998 18.5 10.25 18.5ZM12.9562 20.0005L10.25 20C8.24998 20 7.50035 20.0004 7.50035 21.0004L7.50076 21.3535C7.50076 22.4993 8.24998 22.5004 10.25 22.5004C10.3202 22.5004 12.889 22.5001 12.9562 22.4993C14.7501 22.4993 15.5 22.4993 15.5 21.3536C15.5 21.323 15.5 21.0005 15.5 21.0005C15.5 20 14.7501 20.0005 12.9562 20.0005Z" fill="black" fill-opacity="0.2"/>
<path fill-rule="evenodd" clip-rule="evenodd" d="M10.25 18.5C10.3198 18.5 12.8886 18.5013 12.9562 18.5013C15.2501 18.5013 17 18.5 17 21.0005C17 21.0396 17 21.3536 17 21.3921C17 23.9995 15.2501 23.9995 12.9562 23.9995C12.8882 24.0002 10.3194 24.0004 10.25 24.0004C7.74999 24.0004 5.99999 24.0004 5.99999 21.4309C5.99998 21.3921 6 24.5004 6 21.0005C6 18.5 7.74998 18.5 10.25 18.5ZM12.9562 20.0005L10.25 20C8.24998 20 7.50035 20.0004 7.50035 21.0004L7.50076 21.3535C7.50076 22.4993 8.24998 22.5004 10.25 22.5004C10.3202 22.5004 12.889 22.5001 12.9562 22.4993C14.7501 22.4993 15.5 22.4993 15.5 21.3536C15.5 21.323 15.5 21.0005 15.5 21.0005C15.5 20 14.7501 20.0005 12.9562 20.0005Z" fill="black" fill-opacity="0.2"/>
<path fill-rule="evenodd" clip-rule="evenodd" d="M10.25 18.5C10.3198 18.5 12.8886 18.5013 12.9562 18.5013C15.2501 18.5013 17 18.5 17 21.0005C17 21.0396 17 21.3536 17 21.3921C17 23.9995 15.2501 23.9995 12.9562 23.9995C12.8882 24.0002 10.3194 24.0004 10.25 24.0004C7.74999 24.0004 5.99999 24.0004 5.99999 21.4309C5.99998 21.3921 6 24.5004 6 21.0005C6 18.5 7.74998 18.5 10.25 18.5ZM12.9562 20.0005L10.25 20C8.24998 20 7.50035 20.0004 7.50035 21.0004L7.50076 21.3535C7.50076 22.4993 8.24998 22.5004 10.25 22.5004C10.3202 22.5004 12.889 22.5001 12.9562 22.4993C14.7501 22.4993 15.5 22.4993 15.5 21.3536C15.5 21.323 15.5 21.0005 15.5 21.0005C15.5 20 14.7501 20.0005 12.9562 20.0005Z" fill="black" fill-opacity="0.2"/>
<path fill-rule="evenodd" clip-rule="evenodd" d="M10.25 18.5C10.3198 18.5 12.8886 18.5013 12.9562 18.5013C15.2501 18.5013 17 18.5 17 21.0005C17 21.0396 17 21.3536 17 21.3921C17 23.9995 15.2501 23.9995 12.9562 23.9995C12.8882 24.0002 10.3194 24.0004 10.25 24.0004C7.74999 24.0004 5.99999 24.0004 5.99999 21.4309C5.99998 21.3921 6 24.5004 6 21.0005C6 18.5 7.74998 18.5 10.25 18.5ZM12.9562 20.0005L10.25 20C8.24998 20 7.50035 20.0004 7.50035 21.0004L7.50076 21.3535C7.50076 22.4993 8.24998 22.5004 10.25 22.5004C10.3202 22.5004 12.889 22.5001 12.9562 22.4993C14.7501 22.4993 15.5 22.4993 15.5 21.3536C15.5 21.323 15.5 21.0005 15.5 21.0005C15.5 20 14.7501 20.0005 12.9562 20.0005Z" fill="black" fill-opacity="0.2"/>
<path fill-rule="evenodd" clip-rule="evenodd" d="M10.25 18.5C10.3198 18.5 12.8886 18.5013 12.9562 18.5013C15.2501 18.5013 17 18.5 17 21.0005C17 21.0396 17 21.3536 17 21.3921C17 23.9995 15.2501 23.9995 12.9562 23.9995C12.8882 24.0002 10.3194 24.0004 10.25 24.0004C7.74999 24.0004 5.99999 24.0004 5.99999 21.4309C5.99998 21.3921 6 24.5004 6 21.0005C6 18.5 7.74998 18.5 10.25 18.5ZM12.9562 20.0005L10.25 20C8.24998 20 7.50035 20.0004 7.50035 21.0004L7.50076 21.3535C7.50076 22.4993 8.24998 22.5004 10.25 22.5004C10.3202 22.5004 12.889 22.5001 12.9562 22.4993C14.7501 22.4993 15.5 22.4993 15.5 21.3536C15.5 21.323 15.5 21.0005 15.5 21.0005C15.5 20 14.7501 20.0005 12.9562 20.0005Z" fill="black" fill-opacity="0.2"/>
</svg>
