<svg width="32" height="32" viewBox="0 0 32 32" fill="none" xmlns="http://www.w3.org/2000/svg">
<path d="M22.7362 26.04C21.4295 27.3067 20.0028 27.1067 18.6295 26.5067C17.1762 25.8933 15.8428 25.8667 14.3095 26.5067C12.3895 27.3333 11.3762 27.0933 10.2295 26.04C3.72282 19.3333 4.68282 9.12 12.0695 8.74667C13.8695 8.84 15.1228 9.73333 16.1762 9.81333C17.7495 9.49333 19.2562 8.57333 20.9362 8.69333C22.9495 8.85333 24.4695 9.65333 25.4695 11.0933C21.3095 13.5867 22.2962 19.0667 26.1095 20.6C25.3495 22.6 24.3628 24.5867 22.7228 26.0533L22.7362 26.04ZM16.0428 8.66667C15.8428 5.69333 18.2562 3.24 21.0295 3C21.4162 6.44 17.9095 9 16.0428 8.66667Z" fill="black"/>
</svg>
