<svg width="24" height="24" viewBox="0 0 24 24" fill="none" xmlns="http://www.w3.org/2000/svg">
<g id="Category">
<path id="Combined-Shape" fill-rule="evenodd" clip-rule="evenodd" d="M17.1163 3.65364C17.1663 3.69264 18.8393 4.99264 18.8393 4.99264C19.4473 5.35464 19.9223 6.00164 20.1023 6.76764C20.2813 7.52564 20.1513 8.30764 19.7343 8.96864C19.7315 8.97305 19.7287 8.97741 19.7191 8.99037L19.7115 9.00038C19.6439 9.08958 19.3496 9.46164 17.8646 11.3222C17.8508 11.3466 17.8351 11.3695 17.8181 11.3916C17.793 11.4244 17.7658 11.4544 17.7367 11.4818C17.6354 11.6093 17.5284 11.7433 17.4159 11.8842L17.188 12.1697C16.7177 12.7587 16.1599 13.4571 15.4981 14.2855L15.1584 14.7106C13.8807 16.3097 12.2444 18.3572 10.1483 20.9796C9.68927 21.5516 9.00127 21.8846 8.26227 21.8936L4.62327 21.9396H4.61327C4.26627 21.9396 3.96427 21.7016 3.88327 21.3626L3.06427 17.8916C2.89527 17.1726 3.06327 16.4306 3.52427 15.8546L12.9443 4.07264C12.9483 4.06864 12.9513 4.06364 12.9553 4.05964C13.9883 2.82464 15.8563 2.64264 17.1163 3.65364ZM11.894 7.787L4.69527 16.7916C4.52427 17.0056 4.46127 17.2816 4.52427 17.5466L5.20527 20.4316L8.24427 20.3936C8.53327 20.3906 8.80027 20.2616 8.97727 20.0416C9.88876 18.9012 11.0343 17.4679 12.2121 15.994L12.6288 15.4726L13.0462 14.9502C14.1508 13.5679 15.2421 12.2021 16.1551 11.0589L11.894 7.787ZM14.1103 5.01664L12.831 6.615L17.0918 9.88593C17.9119 8.8587 18.4514 8.18214 18.5013 8.11764C18.6653 7.85164 18.7293 7.47564 18.6433 7.11364C18.5553 6.74264 18.3243 6.42764 17.9913 6.22664C17.9203 6.17764 16.2353 4.86964 16.1833 4.82864C15.5493 4.32064 14.6243 4.40864 14.1103 5.01664Z" fill="#6167FF"/>
</g>
</svg>
