<svg width="16" height="16" viewBox="0 0 16 16" fill="none" xmlns="http://www.w3.org/2000/svg">
<g id="Frame" clip-path="url(#clip0_366_1581)">
<path id="Vector" d="M15.6939 7.57677L13.3985 6.91938C12.3648 6.62732 11.4231 6.07429 10.6637 5.31321C9.90427 4.55213 9.35243 3.60847 9.061 2.57252L8.40503 0.272083C8.37204 0.191599 8.31592 0.12276 8.2438 0.0743132C8.17169 0.0258666 8.08682 0 8 0C7.91318 0 7.82832 0.0258666 7.7562 0.0743132C7.68408 0.12276 7.62796 0.191599 7.59497 0.272083L6.939 2.57252C6.64757 3.60847 6.09574 4.55213 5.3363 5.31321C4.57686 6.07429 3.63524 6.62732 2.60153 6.91938L0.306069 7.57677C0.217931 7.60184 0.140358 7.65504 0.0851219 7.72829C0.0298854 7.80155 0 7.89086 0 7.98268C0 8.07449 0.0298854 8.16381 0.0851219 8.23706C0.140358 8.31032 0.217931 8.36351 0.306069 8.38859L2.60153 9.04597C3.63524 9.33803 4.57686 9.89106 5.3363 10.6521C6.09574 11.4132 6.64757 12.3569 6.939 13.3928L7.59497 15.6933C7.61998 15.7816 7.67307 15.8593 7.74616 15.9147C7.81926 15.97 7.90838 16 8 16C8.09162 16 8.18074 15.97 8.25384 15.9147C8.32693 15.8593 8.38002 15.7816 8.40503 15.6933L9.061 13.3928C9.35243 12.3569 9.90427 11.4132 10.6637 10.6521C11.4231 9.89106 12.3648 9.33803 13.3985 9.04597L15.6939 8.38859C15.7821 8.36351 15.8596 8.31032 15.9149 8.23706C15.9701 8.16381 16 8.07449 16 7.98268C16 7.89086 15.9701 7.80155 15.9149 7.72829C15.8596 7.65504 15.7821 7.60184 15.6939 7.57677Z" fill="#FFBA69"/>
</g>
<defs>
<clipPath id="clip0_366_1581">
<rect width="16" height="16" fill="white"/>
</clipPath>
</defs>
</svg>
