<svg width="20" height="20" viewBox="0 0 20 20" fill="none" xmlns="http://www.w3.org/2000/svg">
<g clip-path="url(#clip0_950_10916)">
<path d="M9.40539 0.773499C9.70561 0.38296 10.2944 0.38296 10.5946 0.773499L11.1801 1.53511C11.4092 1.8331 11.8234 1.91551 12.1491 1.72786L12.9815 1.24828C13.4083 1.00235 13.9523 1.22767 14.0802 1.70337L14.3296 2.63106C14.4272 2.99403 14.7784 3.2287 15.1511 3.17997L16.1037 3.05542C16.5921 2.99156 17.0084 3.40789 16.9446 3.89633L16.82 4.84886C16.7713 5.22156 17.006 5.57277 17.3689 5.67037L18.2966 5.91982C18.7723 6.04773 18.9976 6.5917 18.7517 7.01852L18.2721 7.85088C18.0845 8.17656 18.1669 8.59084 18.4649 8.81992L19.2265 9.40539C19.617 9.70561 19.617 10.2944 19.2265 10.5946L18.4649 11.1801C18.1669 11.4092 18.0845 11.8234 18.2721 12.1491L18.7517 12.9815C18.9976 13.4083 18.7723 13.9523 18.2966 14.0802L17.3689 14.3296C17.006 14.4272 16.7713 14.7784 16.82 15.1511L16.9446 16.1037C17.0084 16.5921 16.5921 17.0084 16.1037 16.9446L15.1511 16.82C14.7784 16.7713 14.4272 17.006 14.3296 17.3689L14.0802 18.2966C13.9523 18.7723 13.4083 18.9976 12.9815 18.7517L12.1491 18.2721C11.8234 18.0845 11.4092 18.1669 11.1801 18.4649L10.5946 19.2265C10.2944 19.617 9.70561 19.617 9.40539 19.2265L8.81992 18.4649C8.59084 18.1669 8.17656 18.0845 7.85088 18.2721L7.01852 18.7517C6.5917 18.9976 6.04773 18.7723 5.91982 18.2966L5.67037 17.3689C5.57277 17.006 5.22156 16.7713 4.84886 16.82L3.89633 16.9446C3.40789 17.0084 2.99156 16.5921 3.05542 16.1037L3.17997 15.1511C3.2287 14.7784 2.99403 14.4272 2.63106 14.3296L1.70337 14.0802C1.22767 13.9523 1.00235 13.4083 1.24828 12.9815L1.72786 12.1491C1.91551 11.8234 1.8331 11.4092 1.53511 11.1801L0.773499 10.5946C0.38296 10.2944 0.38296 9.70561 0.773499 9.40539L1.53511 8.81992C1.8331 8.59084 1.91551 8.17656 1.72786 7.85088L1.24828 7.01852C1.00235 6.5917 1.22767 6.04773 1.70337 5.91982L2.63106 5.67037C2.99403 5.57277 3.2287 5.22156 3.17997 4.84886L3.05542 3.89633C2.99156 3.40789 3.40789 2.99156 3.89633 3.05542L4.84886 3.17997C5.22156 3.2287 5.57277 2.99403 5.67037 2.63106L5.91982 1.70337C6.04773 1.22767 6.5917 1.00235 7.01852 1.24828L7.85088 1.72786C8.17656 1.91551 8.59084 1.8331 8.81992 1.53511L9.40539 0.773499Z" fill="url(#paint0_linear_950_10916)"/>
<path d="M7 9.77778L9.14286 12L13 8" stroke="white" stroke-width="1.5" stroke-linecap="round" stroke-linejoin="round"/>
</g>
<defs>
<linearGradient id="paint0_linear_950_10916" x1="5.78726e-07" y1="9.99999" x2="19.8138" y2="11.9208" gradientUnits="userSpaceOnUse">
<stop stop-color="#6167FF"/>
<stop offset="0.5" stop-color="#DD60D8"/>
<stop offset="1" stop-color="#FF80AD"/>
</linearGradient>
<clipPath id="clip0_950_10916">
<rect width="20" height="20" fill="white"/>
</clipPath>
</defs>
</svg>
