<svg width="32" height="32" viewBox="0 0 32 32" fill="none" xmlns="http://www.w3.org/2000/svg">
<path d="M27.1142 13.7797H26.2013V13.7327H16.0013V18.266H22.4063C21.4719 20.905 18.961 22.7993 16.0013 22.7993C12.246 22.7993 9.2013 19.7546 9.2013 15.9993C9.2013 12.244 12.246 9.19935 16.0013 9.19935C17.7347 9.19935 19.3118 9.85328 20.5125 10.9214L23.7182 7.71582C21.694 5.82938 18.9865 4.66602 16.0013 4.66602C9.74247 4.66602 4.66797 9.74052 4.66797 15.9993C4.66797 22.2582 9.74247 27.3327 16.0013 27.3327C22.2601 27.3327 27.3346 22.2582 27.3346 15.9993C27.3346 15.2394 27.2564 14.4977 27.1142 13.7797Z" fill="#FFC107"/>
<path d="M5.97266 10.7242L9.69622 13.455C10.7038 10.9605 13.1438 9.19935 15.9993 9.19935C17.7327 9.19935 19.3097 9.85328 20.5105 10.9214L23.7161 7.71582C21.692 5.82938 18.9845 4.66602 15.9993 4.66602C11.6461 4.66602 7.87099 7.12365 5.97266 10.7242Z" fill="#FF3D00"/>
<path d="M15.9997 27.3329C18.9271 27.3329 21.587 26.2126 23.5981 24.3908L20.0904 21.4226C18.9143 22.317 17.4772 22.8008 15.9997 22.7996C13.0519 22.7996 10.5489 20.92 9.60596 18.2969L5.91016 21.1444C7.78582 24.8147 11.595 27.3329 15.9997 27.3329Z" fill="#4CAF50"/>
<path d="M27.1129 13.7814L27.0933 13.7344H26.2H16V18.2677H22.405C21.9581 19.5237 21.1529 20.6212 20.0891 21.4246L20.0908 21.4235L23.5984 24.3917C23.3502 24.6172 27.3333 21.6677 27.3333 16.001C27.3333 15.2411 27.2551 14.4994 27.1129 13.7814Z" fill="#1976D2"/>
</svg>
