<svg width="20" height="20" viewBox="0 0 20 20" fill="none" xmlns="http://www.w3.org/2000/svg">
<path fill-rule="evenodd" clip-rule="evenodd" d="M4.5 11.25C8.569 11.25 8.75 12.63 8.75 15.5C8.75 16.938 8.75 17.961 8.146 18.71C7.451 19.573 6.186 19.75 4.5 19.75C2.814 19.75 1.549 19.573 0.854 18.71C0.25 17.961 0.25 16.939 0.25 15.525L1 15.5H0.25C0.25 12.63 0.431 11.25 4.5 11.25ZM15.5 11.25C19.569 11.25 19.75 12.63 19.75 15.5C19.75 16.938 19.75 17.961 19.146 18.71C18.451 19.573 17.186 19.75 15.5 19.75C13.814 19.75 12.549 19.573 11.854 18.71C11.25 17.961 11.25 16.939 11.25 15.525L12 15.5H11.25C11.25 12.63 11.431 11.25 15.5 11.25ZM4.70616 12.7504L4.5 12.75C1.89103 12.75 1.75723 12.9372 1.75037 15.1271L1.75079 15.9802C1.75553 16.8511 1.78871 17.4803 2.021 17.77C2.286 18.098 3.073 18.25 4.5 18.25C5.927 18.25 6.714 18.097 6.979 17.769C7.25 17.432 7.25 16.632 7.25 15.524C7.25 13.0238 7.25 12.7622 4.70616 12.7504ZM15.7062 12.7504L15.5 12.75C12.891 12.75 12.7572 12.9372 12.7504 15.1271L12.7508 15.9802C12.7555 16.8511 12.7887 17.4803 13.021 17.77C13.286 18.098 14.073 18.25 15.5 18.25C16.927 18.25 17.714 18.097 17.979 17.769C18.25 17.432 18.25 16.632 18.25 15.524C18.25 13.0238 18.25 12.7622 15.7062 12.7504ZM4.5 0.25C8.569 0.25 8.75 1.63 8.75 4.5C8.75 5.938 8.75 6.961 8.146 7.71C7.451 8.573 6.186 8.75 4.5 8.75C2.814 8.75 1.549 8.573 0.854 7.71C0.25 6.961 0.25 5.939 0.25 4.525L1 4.5H0.25C0.25 1.63 0.431 0.25 4.5 0.25ZM15.5 0.25C19.569 0.25 19.75 1.63 19.75 4.5C19.75 5.938 19.75 6.961 19.146 7.71C18.451 8.573 17.186 8.75 15.5 8.75C13.814 8.75 12.549 8.573 11.854 7.71C11.25 6.961 11.25 5.939 11.25 4.525L12 4.5H11.25C11.25 1.63 11.431 0.25 15.5 0.25ZM4.70616 1.75045L4.5 1.75C1.89103 1.75 1.75723 1.93721 1.75037 4.12705L1.75079 4.98018C1.75553 5.85114 1.78871 6.48029 2.021 6.77C2.286 7.098 3.073 7.25 4.5 7.25C5.927 7.25 6.714 7.097 6.979 6.769C7.25 6.432 7.25 5.632 7.25 4.524C7.25 2.0238 7.25 1.76222 4.70616 1.75045ZM15.7062 1.75045L15.5 1.75C12.891 1.75 12.7572 1.93721 12.7504 4.12705L12.7508 4.98018C12.7555 5.85114 12.7887 6.48029 13.021 6.77C13.286 7.098 14.073 7.25 15.5 7.25C16.927 7.25 17.714 7.097 17.979 6.769C18.25 6.432 18.25 5.632 18.25 4.524C18.25 2.0238 18.25 1.76222 15.7062 1.75045Z" fill="#242424"/>
<path fill-rule="evenodd" clip-rule="evenodd" d="M4.5 11.25C8.569 11.25 8.75 12.63 8.75 15.5C8.75 16.938 8.75 17.961 8.146 18.71C7.451 19.573 6.186 19.75 4.5 19.75C2.814 19.75 1.549 19.573 0.854 18.71C0.25 17.961 0.25 16.939 0.25 15.525L1 15.5H0.25C0.25 12.63 0.431 11.25 4.5 11.25ZM15.5 11.25C19.569 11.25 19.75 12.63 19.75 15.5C19.75 16.938 19.75 17.961 19.146 18.71C18.451 19.573 17.186 19.75 15.5 19.75C13.814 19.75 12.549 19.573 11.854 18.71C11.25 17.961 11.25 16.939 11.25 15.525L12 15.5H11.25C11.25 12.63 11.431 11.25 15.5 11.25ZM4.70616 12.7504L4.5 12.75C1.89103 12.75 1.75723 12.9372 1.75037 15.1271L1.75079 15.9802C1.75553 16.8511 1.78871 17.4803 2.021 17.77C2.286 18.098 3.073 18.25 4.5 18.25C5.927 18.25 6.714 18.097 6.979 17.769C7.25 17.432 7.25 16.632 7.25 15.524C7.25 13.0238 7.25 12.7622 4.70616 12.7504ZM15.7062 12.7504L15.5 12.75C12.891 12.75 12.7572 12.9372 12.7504 15.1271L12.7508 15.9802C12.7555 16.8511 12.7887 17.4803 13.021 17.77C13.286 18.098 14.073 18.25 15.5 18.25C16.927 18.25 17.714 18.097 17.979 17.769C18.25 17.432 18.25 16.632 18.25 15.524C18.25 13.0238 18.25 12.7622 15.7062 12.7504ZM4.5 0.25C8.569 0.25 8.75 1.63 8.75 4.5C8.75 5.938 8.75 6.961 8.146 7.71C7.451 8.573 6.186 8.75 4.5 8.75C2.814 8.75 1.549 8.573 0.854 7.71C0.25 6.961 0.25 5.939 0.25 4.525L1 4.5H0.25C0.25 1.63 0.431 0.25 4.5 0.25ZM15.5 0.25C19.569 0.25 19.75 1.63 19.75 4.5C19.75 5.938 19.75 6.961 19.146 7.71C18.451 8.573 17.186 8.75 15.5 8.75C13.814 8.75 12.549 8.573 11.854 7.71C11.25 6.961 11.25 5.939 11.25 4.525L12 4.5H11.25C11.25 1.63 11.431 0.25 15.5 0.25ZM4.70616 1.75045L4.5 1.75C1.89103 1.75 1.75723 1.93721 1.75037 4.12705L1.75079 4.98018C1.75553 5.85114 1.78871 6.48029 2.021 6.77C2.286 7.098 3.073 7.25 4.5 7.25C5.927 7.25 6.714 7.097 6.979 6.769C7.25 6.432 7.25 5.632 7.25 4.524C7.25 2.0238 7.25 1.76222 4.70616 1.75045ZM15.7062 1.75045L15.5 1.75C12.891 1.75 12.7572 1.93721 12.7504 4.12705L12.7508 4.98018C12.7555 5.85114 12.7887 6.48029 13.021 6.77C13.286 7.098 14.073 7.25 15.5 7.25C16.927 7.25 17.714 7.097 17.979 6.769C18.25 6.432 18.25 5.632 18.25 4.524C18.25 2.0238 18.25 1.76222 15.7062 1.75045Z" fill="black" fill-opacity="0.2"/>
<path fill-rule="evenodd" clip-rule="evenodd" d="M4.5 11.25C8.569 11.25 8.75 12.63 8.75 15.5C8.75 16.938 8.75 17.961 8.146 18.71C7.451 19.573 6.186 19.75 4.5 19.75C2.814 19.75 1.549 19.573 0.854 18.71C0.25 17.961 0.25 16.939 0.25 15.525L1 15.5H0.25C0.25 12.63 0.431 11.25 4.5 11.25ZM15.5 11.25C19.569 11.25 19.75 12.63 19.75 15.5C19.75 16.938 19.75 17.961 19.146 18.71C18.451 19.573 17.186 19.75 15.5 19.75C13.814 19.75 12.549 19.573 11.854 18.71C11.25 17.961 11.25 16.939 11.25 15.525L12 15.5H11.25C11.25 12.63 11.431 11.25 15.5 11.25ZM4.70616 12.7504L4.5 12.75C1.89103 12.75 1.75723 12.9372 1.75037 15.1271L1.75079 15.9802C1.75553 16.8511 1.78871 17.4803 2.021 17.77C2.286 18.098 3.073 18.25 4.5 18.25C5.927 18.25 6.714 18.097 6.979 17.769C7.25 17.432 7.25 16.632 7.25 15.524C7.25 13.0238 7.25 12.7622 4.70616 12.7504ZM15.7062 12.7504L15.5 12.75C12.891 12.75 12.7572 12.9372 12.7504 15.1271L12.7508 15.9802C12.7555 16.8511 12.7887 17.4803 13.021 17.77C13.286 18.098 14.073 18.25 15.5 18.25C16.927 18.25 17.714 18.097 17.979 17.769C18.25 17.432 18.25 16.632 18.25 15.524C18.25 13.0238 18.25 12.7622 15.7062 12.7504ZM4.5 0.25C8.569 0.25 8.75 1.63 8.75 4.5C8.75 5.938 8.75 6.961 8.146 7.71C7.451 8.573 6.186 8.75 4.5 8.75C2.814 8.75 1.549 8.573 0.854 7.71C0.25 6.961 0.25 5.939 0.25 4.525L1 4.5H0.25C0.25 1.63 0.431 0.25 4.5 0.25ZM15.5 0.25C19.569 0.25 19.75 1.63 19.75 4.5C19.75 5.938 19.75 6.961 19.146 7.71C18.451 8.573 17.186 8.75 15.5 8.75C13.814 8.75 12.549 8.573 11.854 7.71C11.25 6.961 11.25 5.939 11.25 4.525L12 4.5H11.25C11.25 1.63 11.431 0.25 15.5 0.25ZM4.70616 1.75045L4.5 1.75C1.89103 1.75 1.75723 1.93721 1.75037 4.12705L1.75079 4.98018C1.75553 5.85114 1.78871 6.48029 2.021 6.77C2.286 7.098 3.073 7.25 4.5 7.25C5.927 7.25 6.714 7.097 6.979 6.769C7.25 6.432 7.25 5.632 7.25 4.524C7.25 2.0238 7.25 1.76222 4.70616 1.75045ZM15.7062 1.75045L15.5 1.75C12.891 1.75 12.7572 1.93721 12.7504 4.12705L12.7508 4.98018C12.7555 5.85114 12.7887 6.48029 13.021 6.77C13.286 7.098 14.073 7.25 15.5 7.25C16.927 7.25 17.714 7.097 17.979 6.769C18.25 6.432 18.25 5.632 18.25 4.524C18.25 2.0238 18.25 1.76222 15.7062 1.75045Z" fill="black" fill-opacity="0.2"/>
<path fill-rule="evenodd" clip-rule="evenodd" d="M4.5 11.25C8.569 11.25 8.75 12.63 8.75 15.5C8.75 16.938 8.75 17.961 8.146 18.71C7.451 19.573 6.186 19.75 4.5 19.75C2.814 19.75 1.549 19.573 0.854 18.71C0.25 17.961 0.25 16.939 0.25 15.525L1 15.5H0.25C0.25 12.63 0.431 11.25 4.5 11.25ZM15.5 11.25C19.569 11.25 19.75 12.63 19.75 15.5C19.75 16.938 19.75 17.961 19.146 18.71C18.451 19.573 17.186 19.75 15.5 19.75C13.814 19.75 12.549 19.573 11.854 18.71C11.25 17.961 11.25 16.939 11.25 15.525L12 15.5H11.25C11.25 12.63 11.431 11.25 15.5 11.25ZM4.70616 12.7504L4.5 12.75C1.89103 12.75 1.75723 12.9372 1.75037 15.1271L1.75079 15.9802C1.75553 16.8511 1.78871 17.4803 2.021 17.77C2.286 18.098 3.073 18.25 4.5 18.25C5.927 18.25 6.714 18.097 6.979 17.769C7.25 17.432 7.25 16.632 7.25 15.524C7.25 13.0238 7.25 12.7622 4.70616 12.7504ZM15.7062 12.7504L15.5 12.75C12.891 12.75 12.7572 12.9372 12.7504 15.1271L12.7508 15.9802C12.7555 16.8511 12.7887 17.4803 13.021 17.77C13.286 18.098 14.073 18.25 15.5 18.25C16.927 18.25 17.714 18.097 17.979 17.769C18.25 17.432 18.25 16.632 18.25 15.524C18.25 13.0238 18.25 12.7622 15.7062 12.7504ZM4.5 0.25C8.569 0.25 8.75 1.63 8.75 4.5C8.75 5.938 8.75 6.961 8.146 7.71C7.451 8.573 6.186 8.75 4.5 8.75C2.814 8.75 1.549 8.573 0.854 7.71C0.25 6.961 0.25 5.939 0.25 4.525L1 4.5H0.25C0.25 1.63 0.431 0.25 4.5 0.25ZM15.5 0.25C19.569 0.25 19.75 1.63 19.75 4.5C19.75 5.938 19.75 6.961 19.146 7.71C18.451 8.573 17.186 8.75 15.5 8.75C13.814 8.75 12.549 8.573 11.854 7.71C11.25 6.961 11.25 5.939 11.25 4.525L12 4.5H11.25C11.25 1.63 11.431 0.25 15.5 0.25ZM4.70616 1.75045L4.5 1.75C1.89103 1.75 1.75723 1.93721 1.75037 4.12705L1.75079 4.98018C1.75553 5.85114 1.78871 6.48029 2.021 6.77C2.286 7.098 3.073 7.25 4.5 7.25C5.927 7.25 6.714 7.097 6.979 6.769C7.25 6.432 7.25 5.632 7.25 4.524C7.25 2.0238 7.25 1.76222 4.70616 1.75045ZM15.7062 1.75045L15.5 1.75C12.891 1.75 12.7572 1.93721 12.7504 4.12705L12.7508 4.98018C12.7555 5.85114 12.7887 6.48029 13.021 6.77C13.286 7.098 14.073 7.25 15.5 7.25C16.927 7.25 17.714 7.097 17.979 6.769C18.25 6.432 18.25 5.632 18.25 4.524C18.25 2.0238 18.25 1.76222 15.7062 1.75045Z" fill="black" fill-opacity="0.2"/>
<path fill-rule="evenodd" clip-rule="evenodd" d="M4.5 11.25C8.569 11.25 8.75 12.63 8.75 15.5C8.75 16.938 8.75 17.961 8.146 18.71C7.451 19.573 6.186 19.75 4.5 19.75C2.814 19.75 1.549 19.573 0.854 18.71C0.25 17.961 0.25 16.939 0.25 15.525L1 15.5H0.25C0.25 12.63 0.431 11.25 4.5 11.25ZM15.5 11.25C19.569 11.25 19.75 12.63 19.75 15.5C19.75 16.938 19.75 17.961 19.146 18.71C18.451 19.573 17.186 19.75 15.5 19.75C13.814 19.75 12.549 19.573 11.854 18.71C11.25 17.961 11.25 16.939 11.25 15.525L12 15.5H11.25C11.25 12.63 11.431 11.25 15.5 11.25ZM4.70616 12.7504L4.5 12.75C1.89103 12.75 1.75723 12.9372 1.75037 15.1271L1.75079 15.9802C1.75553 16.8511 1.78871 17.4803 2.021 17.77C2.286 18.098 3.073 18.25 4.5 18.25C5.927 18.25 6.714 18.097 6.979 17.769C7.25 17.432 7.25 16.632 7.25 15.524C7.25 13.0238 7.25 12.7622 4.70616 12.7504ZM15.7062 12.7504L15.5 12.75C12.891 12.75 12.7572 12.9372 12.7504 15.1271L12.7508 15.9802C12.7555 16.8511 12.7887 17.4803 13.021 17.77C13.286 18.098 14.073 18.25 15.5 18.25C16.927 18.25 17.714 18.097 17.979 17.769C18.25 17.432 18.25 16.632 18.25 15.524C18.25 13.0238 18.25 12.7622 15.7062 12.7504ZM4.5 0.25C8.569 0.25 8.75 1.63 8.75 4.5C8.75 5.938 8.75 6.961 8.146 7.71C7.451 8.573 6.186 8.75 4.5 8.75C2.814 8.75 1.549 8.573 0.854 7.71C0.25 6.961 0.25 5.939 0.25 4.525L1 4.5H0.25C0.25 1.63 0.431 0.25 4.5 0.25ZM15.5 0.25C19.569 0.25 19.75 1.63 19.75 4.5C19.75 5.938 19.75 6.961 19.146 7.71C18.451 8.573 17.186 8.75 15.5 8.75C13.814 8.75 12.549 8.573 11.854 7.71C11.25 6.961 11.25 5.939 11.25 4.525L12 4.5H11.25C11.25 1.63 11.431 0.25 15.5 0.25ZM4.70616 1.75045L4.5 1.75C1.89103 1.75 1.75723 1.93721 1.75037 4.12705L1.75079 4.98018C1.75553 5.85114 1.78871 6.48029 2.021 6.77C2.286 7.098 3.073 7.25 4.5 7.25C5.927 7.25 6.714 7.097 6.979 6.769C7.25 6.432 7.25 5.632 7.25 4.524C7.25 2.0238 7.25 1.76222 4.70616 1.75045ZM15.7062 1.75045L15.5 1.75C12.891 1.75 12.7572 1.93721 12.7504 4.12705L12.7508 4.98018C12.7555 5.85114 12.7887 6.48029 13.021 6.77C13.286 7.098 14.073 7.25 15.5 7.25C16.927 7.25 17.714 7.097 17.979 6.769C18.25 6.432 18.25 5.632 18.25 4.524C18.25 2.0238 18.25 1.76222 15.7062 1.75045Z" fill="black" fill-opacity="0.2"/>
<path fill-rule="evenodd" clip-rule="evenodd" d="M4.5 11.25C8.569 11.25 8.75 12.63 8.75 15.5C8.75 16.938 8.75 17.961 8.146 18.71C7.451 19.573 6.186 19.75 4.5 19.75C2.814 19.75 1.549 19.573 0.854 18.71C0.25 17.961 0.25 16.939 0.25 15.525L1 15.5H0.25C0.25 12.63 0.431 11.25 4.5 11.25ZM15.5 11.25C19.569 11.25 19.75 12.63 19.75 15.5C19.75 16.938 19.75 17.961 19.146 18.71C18.451 19.573 17.186 19.75 15.5 19.75C13.814 19.75 12.549 19.573 11.854 18.71C11.25 17.961 11.25 16.939 11.25 15.525L12 15.5H11.25C11.25 12.63 11.431 11.25 15.5 11.25ZM4.70616 12.7504L4.5 12.75C1.89103 12.75 1.75723 12.9372 1.75037 15.1271L1.75079 15.9802C1.75553 16.8511 1.78871 17.4803 2.021 17.77C2.286 18.098 3.073 18.25 4.5 18.25C5.927 18.25 6.714 18.097 6.979 17.769C7.25 17.432 7.25 16.632 7.25 15.524C7.25 13.0238 7.25 12.7622 4.70616 12.7504ZM15.7062 12.7504L15.5 12.75C12.891 12.75 12.7572 12.9372 12.7504 15.1271L12.7508 15.9802C12.7555 16.8511 12.7887 17.4803 13.021 17.77C13.286 18.098 14.073 18.25 15.5 18.25C16.927 18.25 17.714 18.097 17.979 17.769C18.25 17.432 18.25 16.632 18.25 15.524C18.25 13.0238 18.25 12.7622 15.7062 12.7504ZM4.5 0.25C8.569 0.25 8.75 1.63 8.75 4.5C8.75 5.938 8.75 6.961 8.146 7.71C7.451 8.573 6.186 8.75 4.5 8.75C2.814 8.75 1.549 8.573 0.854 7.71C0.25 6.961 0.25 5.939 0.25 4.525L1 4.5H0.25C0.25 1.63 0.431 0.25 4.5 0.25ZM15.5 0.25C19.569 0.25 19.75 1.63 19.75 4.5C19.75 5.938 19.75 6.961 19.146 7.71C18.451 8.573 17.186 8.75 15.5 8.75C13.814 8.75 12.549 8.573 11.854 7.71C11.25 6.961 11.25 5.939 11.25 4.525L12 4.5H11.25C11.25 1.63 11.431 0.25 15.5 0.25ZM4.70616 1.75045L4.5 1.75C1.89103 1.75 1.75723 1.93721 1.75037 4.12705L1.75079 4.98018C1.75553 5.85114 1.78871 6.48029 2.021 6.77C2.286 7.098 3.073 7.25 4.5 7.25C5.927 7.25 6.714 7.097 6.979 6.769C7.25 6.432 7.25 5.632 7.25 4.524C7.25 2.0238 7.25 1.76222 4.70616 1.75045ZM15.7062 1.75045L15.5 1.75C12.891 1.75 12.7572 1.93721 12.7504 4.12705L12.7508 4.98018C12.7555 5.85114 12.7887 6.48029 13.021 6.77C13.286 7.098 14.073 7.25 15.5 7.25C16.927 7.25 17.714 7.097 17.979 6.769C18.25 6.432 18.25 5.632 18.25 4.524C18.25 2.0238 18.25 1.76222 15.7062 1.75045Z" fill="black" fill-opacity="0.2"/>
<path fill-rule="evenodd" clip-rule="evenodd" d="M4.5 11.25C8.569 11.25 8.75 12.63 8.75 15.5C8.75 16.938 8.75 17.961 8.146 18.71C7.451 19.573 6.186 19.75 4.5 19.75C2.814 19.75 1.549 19.573 0.854 18.71C0.25 17.961 0.25 16.939 0.25 15.525L1 15.5H0.25C0.25 12.63 0.431 11.25 4.5 11.25ZM15.5 11.25C19.569 11.25 19.75 12.63 19.75 15.5C19.75 16.938 19.75 17.961 19.146 18.71C18.451 19.573 17.186 19.75 15.5 19.75C13.814 19.75 12.549 19.573 11.854 18.71C11.25 17.961 11.25 16.939 11.25 15.525L12 15.5H11.25C11.25 12.63 11.431 11.25 15.5 11.25ZM4.70616 12.7504L4.5 12.75C1.89103 12.75 1.75723 12.9372 1.75037 15.1271L1.75079 15.9802C1.75553 16.8511 1.78871 17.4803 2.021 17.77C2.286 18.098 3.073 18.25 4.5 18.25C5.927 18.25 6.714 18.097 6.979 17.769C7.25 17.432 7.25 16.632 7.25 15.524C7.25 13.0238 7.25 12.7622 4.70616 12.7504ZM15.7062 12.7504L15.5 12.75C12.891 12.75 12.7572 12.9372 12.7504 15.1271L12.7508 15.9802C12.7555 16.8511 12.7887 17.4803 13.021 17.77C13.286 18.098 14.073 18.25 15.5 18.25C16.927 18.25 17.714 18.097 17.979 17.769C18.25 17.432 18.25 16.632 18.25 15.524C18.25 13.0238 18.25 12.7622 15.7062 12.7504ZM4.5 0.25C8.569 0.25 8.75 1.63 8.75 4.5C8.75 5.938 8.75 6.961 8.146 7.71C7.451 8.573 6.186 8.75 4.5 8.75C2.814 8.75 1.549 8.573 0.854 7.71C0.25 6.961 0.25 5.939 0.25 4.525L1 4.5H0.25C0.25 1.63 0.431 0.25 4.5 0.25ZM15.5 0.25C19.569 0.25 19.75 1.63 19.75 4.5C19.75 5.938 19.75 6.961 19.146 7.71C18.451 8.573 17.186 8.75 15.5 8.75C13.814 8.75 12.549 8.573 11.854 7.71C11.25 6.961 11.25 5.939 11.25 4.525L12 4.5H11.25C11.25 1.63 11.431 0.25 15.5 0.25ZM4.70616 1.75045L4.5 1.75C1.89103 1.75 1.75723 1.93721 1.75037 4.12705L1.75079 4.98018C1.75553 5.85114 1.78871 6.48029 2.021 6.77C2.286 7.098 3.073 7.25 4.5 7.25C5.927 7.25 6.714 7.097 6.979 6.769C7.25 6.432 7.25 5.632 7.25 4.524C7.25 2.0238 7.25 1.76222 4.70616 1.75045ZM15.7062 1.75045L15.5 1.75C12.891 1.75 12.7572 1.93721 12.7504 4.12705L12.7508 4.98018C12.7555 5.85114 12.7887 6.48029 13.021 6.77C13.286 7.098 14.073 7.25 15.5 7.25C16.927 7.25 17.714 7.097 17.979 6.769C18.25 6.432 18.25 5.632 18.25 4.524C18.25 2.0238 18.25 1.76222 15.7062 1.75045Z" fill="black" fill-opacity="0.2"/>
</svg>
