<svg width="20" height="20" viewBox="0 0 20 20" fill="none" xmlns="http://www.w3.org/2000/svg">
<g clip-path="url(#clip0_950_11659)">
<path fill-rule="evenodd" clip-rule="evenodd" d="M0 8.95105C0 5.81789 0 4.25131 0.609754 3.0546C1.14611 2.00194 2.00194 1.14611 3.0546 0.609754C4.25131 0 5.81789 0 8.95105 0H11.049C14.1821 0 15.7487 0 16.9454 0.609754C17.9981 1.14611 18.8539 2.00194 19.3902 3.0546C20 4.25131 20 5.81789 20 8.95105V11.049C20 14.1821 20 15.7487 19.3902 16.9454C18.8539 17.9981 17.9981 18.8539 16.9454 19.3902C15.7487 20 14.1821 20 11.049 20H8.95105C5.81789 20 4.25131 20 3.0546 19.3902C2.00194 18.8539 1.14611 17.9981 0.609754 16.9454C0 15.7487 0 14.1821 0 11.049V8.95105ZM7.26606 12.5793L3.81953 9.13279C3.32797 8.64123 3.32797 7.84423 3.81953 7.35267L5.57494 5.59726C6.06651 5.10569 6.8635 5.10569 7.35507 5.59726L10.0048 8.24696L12.6454 5.60632C13.137 5.11475 13.934 5.11475 14.4255 5.60632L16.181 7.36172C16.6725 7.85329 16.6725 8.65028 16.181 9.14185L10.89 14.4328C10.3984 14.9244 9.60145 14.9244 9.10988 14.4328L7.35448 12.6774C7.32299 12.6459 7.29352 12.6132 7.26606 12.5793Z" fill="white"/>
</g>
<defs>
<clipPath id="clip0_950_11659">
<rect width="20" height="20" rx="5.55556" fill="white"/>
</clipPath>
</defs>
</svg>
