<svg width="24" height="24" viewBox="0 0 24 24" fill="none" xmlns="http://www.w3.org/2000/svg">
<g id="Voice">
<g id="Iconly/Light-Outline/Voice">
<g id="Voice_2">
<path id="Combined-Shape" fill-rule="evenodd" clip-rule="evenodd" d="M19.749 9.8009C20.164 9.8009 20.499 10.1369 20.499 10.5509C20.499 15.1431 16.9744 18.9235 12.4993 19.3069L12.499 21.75C12.499 22.164 12.163 22.5 11.749 22.5C11.335 22.5 10.999 22.164 10.999 21.75L10.9997 19.307C6.52416 18.924 2.99902 15.1434 2.99902 10.5509C2.99902 10.1369 3.33502 9.8009 3.74902 9.8009C4.16402 9.8009 4.49902 10.1369 4.49902 10.5509C4.49902 14.5689 7.75102 17.8389 11.749 17.8389C15.747 17.8389 18.999 14.5689 18.999 10.5509C18.999 10.1369 19.335 9.8009 19.749 9.8009ZM11.749 1C14.402 1 16.561 3.167 16.561 5.831V10.519C16.561 13.182 14.402 15.349 11.749 15.349C9.09602 15.349 6.93702 13.182 6.93702 10.519V5.831C6.93702 3.167 9.09602 1 11.749 1ZM11.749 2.5C9.92302 2.5 8.43702 3.994 8.43702 5.831V10.519C8.43702 12.354 9.92302 13.849 11.749 13.849C13.575 13.849 15.061 12.354 15.061 10.519V5.831C15.061 3.994 13.575 2.5 11.749 2.5Z" fill="#3C3C43" fill-opacity="0.6"/>
</g>
</g>
</g>
</svg>
