<svg width="24" height="24" viewBox="0 0 24 24" fill="none" xmlns="http://www.w3.org/2000/svg">
<path d="M20.25 11.9999C20.25 12.3796 19.9678 12.6934 19.6018 12.7431L19.5 12.7499L6.316 12.7493L11.079 17.4929C11.3725 17.7851 11.3735 18.26 11.0813 18.5535C10.8156 18.8204 10.399 18.8455 10.1049 18.6283L10.0206 18.5558L3.97061 12.5318C3.93192 12.4933 3.89832 12.4516 3.86979 12.4076C3.86174 12.3943 3.85354 12.3808 3.84576 12.3669C3.83861 12.3551 3.83215 12.3428 3.82606 12.3303C3.81759 12.3122 3.80932 12.2935 3.80181 12.2744C3.7957 12.2597 3.79061 12.2454 3.78596 12.2309C3.78043 12.213 3.77506 12.194 3.77045 12.1746C3.76701 12.1611 3.76429 12.1481 3.76192 12.135C3.75859 12.1156 3.75575 12.0955 3.75372 12.0751C3.75197 12.0596 3.75092 12.0442 3.75034 12.0289C3.75019 12.0195 3.75 12.0098 3.75 11.9999L3.75038 11.9709C3.75095 11.9562 3.75196 11.9415 3.75339 11.9268L3.75 11.9999C3.75 11.9526 3.75438 11.9063 3.76277 11.8614C3.76471 11.8507 3.76703 11.8397 3.76959 11.8287C3.77492 11.8061 3.78108 11.7844 3.78817 11.7631C3.79165 11.7525 3.7957 11.7412 3.80003 11.7299C3.8088 11.7074 3.81833 11.6859 3.8288 11.6649C3.83367 11.6551 3.83912 11.6447 3.84484 11.6345C3.85421 11.6179 3.86386 11.602 3.87407 11.5866C3.88128 11.5757 3.88925 11.5643 3.89758 11.5531L3.90407 11.5445C3.92428 11.5181 3.9462 11.4931 3.96967 11.4696L3.97057 11.4689L10.0206 5.44391C10.3141 5.15163 10.7889 5.15261 11.0812 5.44611C11.3469 5.71293 11.3703 6.12964 11.1518 6.4228L11.079 6.50677L6.318 11.2493L19.5 11.2499C19.9142 11.2499 20.25 11.5857 20.25 11.9999Z" fill="#242424"/>
</svg>
